<svg width="80" height="47" viewBox="0 0 80 47" fill="none" xmlns="http://www.w3.org/2000/svg">
<g clip-path="url(#clip0_112_607)">
<path d="M68.5997 160.624H10.8057C4.83599 160.624 0 155.775 0 149.791V10.8247C0 4.84802 4.83599 -9.15527e-05 10.7977 -9.15527e-05H68.5918C74.5536 -9.15527e-05 79.3896 4.84802 79.3896 10.8247V149.791C79.3896 155.767 74.5536 160.616 68.5918 160.616L68.5997 160.624ZM79.0962 11.8341C79.0962 10.7055 78.9139 9.61665 78.5888 8.59935C78.5651 8.51987 78.5413 8.4404 78.5096 8.36887C78.4858 8.2894 78.4541 8.21785 78.4224 8.13838C78.3986 8.08275 78.3827 8.01917 78.3589 7.96353C78.2876 7.79663 78.2162 7.62178 78.1449 7.45488C78.1132 7.38335 78.0735 7.30386 78.0418 7.23235C77.9943 7.12901 77.9388 7.02571 77.8912 6.93033C77.8595 6.85881 77.8198 6.79523 77.7802 6.73164C77.7406 6.66011 77.7009 6.58858 77.6613 6.51704C77.5503 6.32631 77.4314 6.13556 77.3045 5.94481C77.2649 5.88918 77.2253 5.82559 77.1856 5.76996C77.138 5.70638 77.0905 5.64279 77.0429 5.57126C76.9953 5.50769 76.9478 5.44409 76.9002 5.38051C76.8526 5.31694 76.8051 5.25336 76.7496 5.18977C76.702 5.12619 76.6465 5.06261 76.591 4.99902C76.488 4.87981 76.377 4.75266 76.2739 4.64139C76.1074 4.45859 75.933 4.28374 75.7507 4.11684C75.6952 4.06914 75.6397 4.0135 75.5842 3.96582C75.4573 3.85455 75.3305 3.74329 75.1957 3.63997C75.1402 3.59229 75.0847 3.55255 75.0213 3.50487C74.831 3.35385 74.6328 3.21873 74.4346 3.08362C74.3712 3.03593 74.2999 2.9962 74.2285 2.94852C74.0937 2.86108 73.951 2.78162 73.8163 2.69418C73.7449 2.65445 73.6815 2.6147 73.6101 2.57497C73.3802 2.4478 73.1503 2.33655 72.9125 2.23322C72.8491 2.20143 72.7857 2.17758 72.7222 2.15373C72.6509 2.12195 72.5716 2.09016 72.5002 2.05836C72.421 2.02658 72.3496 1.99478 72.2703 1.97095C72.0959 1.90736 71.9294 1.84378 71.755 1.78815C71.6916 1.76431 71.6361 1.74841 71.5727 1.73251C71.3428 1.66098 71.1129 1.60535 70.875 1.54971C70.7958 1.53381 70.7085 1.50996 70.6293 1.49408C70.5421 1.47818 70.4549 1.46228 70.3677 1.4464C70.2091 1.4146 70.0426 1.39076 69.8761 1.37486C69.8761 1.37486 69.8127 1.36693 69.781 1.36693C69.7572 1.36693 69.7334 1.36693 69.7096 1.36693C69.7017 1.36693 69.6938 1.36693 69.6779 1.36693C69.8286 1.38281 69.9713 1.40666 70.1219 1.43051C70.1932 1.4464 70.2646 1.45433 70.3439 1.47023C70.4152 1.48613 70.4866 1.50203 70.5579 1.50998C70.772 1.55766 70.986 1.60535 71.2001 1.66893C71.2714 1.68483 71.3428 1.70866 71.4062 1.73251C71.541 1.77225 71.6837 1.81993 71.8185 1.86761C72.0246 1.93915 72.2228 2.01863 72.421 2.10605C72.4844 2.1299 72.5557 2.16168 72.6192 2.19348C72.6826 2.22527 72.746 2.25706 72.8094 2.28885C72.9363 2.35243 73.0631 2.41602 73.19 2.48755C73.3168 2.55907 73.4357 2.6306 73.5626 2.70213C73.6736 2.77367 73.7846 2.83725 73.8876 2.90878C73.9035 2.90878 73.9114 2.92468 73.9193 2.93263C74.0937 3.05183 74.2682 3.179 74.4346 3.30617C74.4901 3.3459 74.5456 3.3936 74.6011 3.44128C74.7597 3.56844 74.9103 3.70355 75.0609 3.83867C75.4256 4.18042 75.7665 4.54601 76.0757 4.93544C76.1233 4.99107 76.1629 5.04672 76.2026 5.10236C76.6465 5.69049 77.0271 6.33426 77.3283 7.01776C77.3759 7.12903 77.4234 7.2403 77.4631 7.35156C77.6771 7.89201 77.8436 8.45628 77.9546 9.04442C77.9784 9.15569 77.9943 9.2749 78.018 9.39412C78.0894 9.86304 78.129 10.3479 78.129 10.8327V149.791C78.129 154.702 74.4029 158.756 69.6383 159.264C69.5511 159.272 69.4718 159.28 69.3846 159.288C69.2974 159.288 69.2102 159.304 69.123 159.304C68.9644 159.312 68.7979 159.32 68.6394 159.32H10.8057C10.6392 159.32 10.4806 159.32 10.3221 159.304C5.31166 159.042 1.31602 154.877 1.31602 149.799V10.8327C1.31602 5.94481 5.01041 1.90736 9.74334 1.36693C9.67991 1.36693 9.61649 1.37486 9.55307 1.38281C9.38658 1.40665 9.2201 1.4305 9.06154 1.45435C8.07056 1.62125 7.12714 1.93121 6.24715 2.36038C6.18373 2.39218 6.12823 2.42397 6.06481 2.44781C5.90625 2.52728 5.75562 2.61472 5.60499 2.70213C5.53364 2.74187 5.47022 2.78162 5.39887 2.82135C5.05797 3.028 4.725 3.25848 4.40789 3.50487C4.35239 3.55255 4.2969 3.59229 4.2414 3.63997C4.07492 3.77509 3.90843 3.91814 3.74988 4.0612C3.69438 4.10889 3.64681 4.15657 3.59925 4.20425C3.53582 4.25989 3.48033 4.31552 3.42483 4.37115C3.36934 4.4268 3.31384 4.49037 3.25042 4.54602C3.21078 4.58575 3.17907 4.62549 3.13943 4.66522C3.09186 4.71291 3.0443 4.76854 3.00466 4.81624C2.73511 5.11824 2.48142 5.43616 2.25151 5.76201C2.21187 5.81764 2.17223 5.88123 2.13259 5.93686C2.00575 6.11966 1.88683 6.31041 1.77584 6.50114C1.7362 6.57268 1.69656 6.63626 1.65692 6.70779C1.36359 7.23235 1.11783 7.78073 0.919631 8.34503C0.88792 8.4245 0.864136 8.49603 0.840353 8.5755C0.713507 8.9729 0.610445 9.37029 0.531166 9.78357C0.515311 9.86304 0.499455 9.95047 0.483599 10.0299C0.388465 10.6101 0.33297 11.2062 0.33297 11.8102V149.791C0.33297 149.894 0.33297 149.997 0.33297 150.101C0.33297 150.18 0.33297 150.252 0.340898 150.331C0.348826 150.498 0.364681 150.665 0.380537 150.832C0.388465 150.919 0.396393 151.007 0.412249 151.086C0.412249 151.134 0.428104 151.174 0.428104 151.221C0.428104 151.277 0.44396 151.333 0.451888 151.388C0.467744 151.476 0.475671 151.563 0.491527 151.651C0.515311 151.802 0.547022 151.953 0.578734 152.096C0.594589 152.167 0.610445 152.239 0.634229 152.318C0.689723 152.541 0.745218 152.747 0.816569 152.962C0.840353 153.026 0.864136 153.097 0.879992 153.161C0.911704 153.24 0.935487 153.328 0.967198 153.407C0.990982 153.479 1.01477 153.542 1.04648 153.606C1.07026 153.661 1.08612 153.717 1.1099 153.773C1.13368 153.836 1.16539 153.908 1.18918 153.971C1.21296 154.019 1.22882 154.067 1.2526 154.114C1.28431 154.186 1.31602 154.257 1.35566 154.329C1.41116 154.456 1.47458 154.575 1.54593 154.702C1.57764 154.766 1.60935 154.83 1.64899 154.893C1.68863 154.965 1.72827 155.036 1.76791 155.108C2.06124 155.601 2.38628 156.077 2.75889 156.515C2.81439 156.578 2.86196 156.642 2.91745 156.705C2.98087 156.777 3.03637 156.84 3.09979 156.912C3.20285 157.023 3.30592 157.134 3.41691 157.238C3.53582 157.357 3.65474 157.468 3.77366 157.58C3.89258 157.691 4.01942 157.794 4.14627 157.897C4.20969 157.953 4.27311 158.001 4.33654 158.048C4.46338 158.152 4.59816 158.247 4.73293 158.343C4.8677 158.438 5.00248 158.533 5.13725 158.621C5.27202 158.708 5.41473 158.796 5.55743 158.875C5.62878 158.915 5.70013 158.955 5.77148 158.994C5.84283 159.034 5.91418 159.074 5.98553 159.113C6.05688 159.153 6.12823 159.193 6.20751 159.225C6.27886 159.264 6.35814 159.296 6.42949 159.336C6.58012 159.408 6.73075 159.471 6.88138 159.535C6.95273 159.566 7.02408 159.598 7.10336 159.622C7.10336 159.622 7.11922 159.622 7.12714 159.63C7.19849 159.662 7.27777 159.686 7.34912 159.71C7.42047 159.733 7.49975 159.757 7.5711 159.789C7.65831 159.813 7.73759 159.845 7.82479 159.869C7.90407 159.892 7.98335 159.916 8.06263 159.94C8.14191 159.964 8.22119 159.988 8.30839 160.004C8.38767 160.027 8.47488 160.043 8.55416 160.059C8.72064 160.099 8.88713 160.131 9.05361 160.155C9.13289 160.171 9.2201 160.186 9.3073 160.194C9.48964 160.218 9.67198 160.242 9.85433 160.258C9.99703 160.274 10.1477 160.282 10.2904 160.29C10.3776 160.29 10.4727 160.298 10.5599 160.298C10.6471 160.298 10.7422 160.298 10.8295 160.298H68.6235C68.7107 160.298 68.8059 160.298 68.8931 160.298C68.9644 160.298 69.0437 160.298 69.1151 160.29C69.2815 160.282 69.4559 160.266 69.6224 160.25C69.7096 160.242 69.7889 160.234 69.8761 160.218C69.9633 160.21 70.0505 160.194 70.1298 160.186C70.2091 160.178 70.2963 160.163 70.3835 160.147C70.4707 160.131 70.55 160.115 70.6293 160.099C70.7085 160.083 70.7958 160.067 70.875 160.043C70.9543 160.027 71.0257 160.012 71.097 159.996C71.1129 159.996 71.1287 159.988 71.1446 159.98C71.2159 159.964 71.2873 159.94 71.3586 159.924C71.4538 159.9 71.5568 159.869 71.652 159.837C71.7154 159.813 71.7867 159.797 71.8502 159.773C71.9929 159.725 72.1435 159.678 72.2862 159.622C72.3813 159.59 72.4844 159.551 72.5716 159.511C72.643 159.479 72.7064 159.455 72.7777 159.423C72.857 159.392 72.9283 159.36 73.0076 159.32C73.079 159.288 73.1583 159.249 73.2296 159.217C73.7608 158.955 74.2602 158.652 74.7359 158.311C74.7914 158.271 74.8548 158.231 74.9103 158.184C75.1164 158.025 75.3226 157.866 75.5128 157.691C75.6 157.619 75.6872 157.54 75.7665 157.46C76.1074 157.142 76.4245 156.809 76.7099 156.451C76.7654 156.387 76.813 156.324 76.8606 156.26C76.9636 156.125 77.0667 155.99 77.1618 155.855C77.2094 155.783 77.257 155.72 77.3045 155.648C77.3838 155.529 77.4631 155.41 77.5424 155.283C77.582 155.219 77.6137 155.155 77.6534 155.092C77.7247 154.973 77.7881 154.853 77.8515 154.734C77.8833 154.679 77.915 154.615 77.9467 154.559C78.0497 154.353 78.1528 154.154 78.24 153.939C78.2638 153.884 78.2876 153.828 78.3114 153.773C78.3986 153.566 78.4779 153.351 78.5492 153.137C78.5809 153.057 78.6047 152.978 78.6285 152.898C78.7712 152.437 78.8822 151.961 78.9614 151.476C78.9694 151.428 78.9773 151.372 78.9852 151.317C79.0011 151.229 79.009 151.15 79.0169 151.062C79.0249 150.975 79.0407 150.888 79.0487 150.808C79.0566 150.721 79.0645 150.633 79.0724 150.546C79.0804 150.387 79.0883 150.228 79.0962 150.069C79.0962 149.966 79.0962 149.862 79.0962 149.759V11.8023V11.8341Z" fill="#C7C7C7"/>
<path d="M9.79883 1.35895C9.71163 1.3669 9.63235 1.37483 9.54514 1.38278C9.37866 1.40663 9.21217 1.43048 9.05362 1.45433C8.06263 1.62123 7.11922 1.93118 6.23923 2.36037C6.1758 2.39215 6.12031 2.42395 6.05689 2.44778C5.89833 2.52727 5.7477 2.61469 5.59707 2.70212C5.52572 2.74185 5.4623 2.7816 5.39095 2.82133C5.05005 3.02797 4.71708 3.25847 4.39996 3.50484C4.34447 3.55252 4.28897 3.59227 4.23348 3.63995C4.06699 3.77505 3.90051 3.91812 3.74195 4.06117C3.68646 4.10887 3.63889 4.15654 3.59132 4.20424C3.5279 4.25987 3.47241 4.31551 3.41691 4.37114C3.36142 4.42677 3.30592 4.49036 3.2425 4.54599C3.20286 4.58572 3.17115 4.62546 3.13151 4.66521C3.08394 4.71289 3.03637 4.76852 2.99673 4.81621C2.72719 5.11823 2.4735 5.43614 2.24359 5.76199C2.20395 5.81763 2.16431 5.88121 2.12467 5.93684C1.99782 6.11964 1.87891 6.31038 1.76792 6.50113C1.72828 6.57266 1.68864 6.63625 1.649 6.70778C1.35567 7.23233 1.1099 7.78072 0.911707 8.345C0.879996 8.42448 0.856212 8.496 0.832429 8.57549C0.705583 8.97287 0.602521 9.37025 0.523243 9.78354C0.507387 9.86302 0.491531 9.95044 0.475675 10.0299C0.380541 10.6101 0.325046 11.2062 0.325046 11.8102V148.789C0.301263 154.424 4.74879 159.042 10.3141 159.304C5.30374 159.042 1.3081 154.877 1.3081 149.799V10.8326C1.3081 5.92094 5.03419 1.8676 9.79883 1.35895Z" fill="url(#paint0_linear_112_607)"/>
<path d="M79.0963 148.79V11.8342C79.0963 10.7056 78.9139 9.61679 78.5889 8.59947C78.5651 8.52 78.5413 8.44052 78.5096 8.369C78.4858 8.28952 78.4541 8.21799 78.4224 8.1385C78.3986 8.08287 78.3827 8.01929 78.359 7.96365C78.2876 7.79675 78.2163 7.6219 78.1449 7.455C78.1132 7.38347 78.0736 7.304 78.0419 7.23247C77.9943 7.12915 77.9388 7.02583 77.8912 6.93047C77.8595 6.85893 77.8199 6.79535 77.7802 6.73177C77.7406 6.66023 77.701 6.5887 77.6613 6.51718C77.5503 6.32643 77.4314 6.13568 77.3046 5.94493C77.2649 5.8893 77.2253 5.82571 77.1856 5.77008C77.1381 5.7065 77.0905 5.64293 77.0429 5.5714C76.9954 5.50781 76.9478 5.44423 76.9002 5.38065C76.8527 5.31706 76.7972 5.25348 76.7496 5.18991C76.702 5.12633 76.6465 5.06274 76.5911 4.99916C76.488 4.87994 76.377 4.75278 76.2739 4.64151C76.1075 4.45871 75.933 4.28386 75.7507 4.11696C75.6952 4.06927 75.6397 4.02158 75.5842 3.96594C75.4574 3.85468 75.3305 3.74342 75.1957 3.64011C75.1403 3.59241 75.0848 3.55267 75.0213 3.50499C74.8311 3.35399 74.6329 3.21886 74.4347 3.08376C74.3713 3.03606 74.2999 2.99632 74.2285 2.94864C74.0938 2.86122 73.9511 2.78174 73.8163 2.69432C73.745 2.65457 73.6815 2.61484 73.6102 2.57509C73.3803 2.44794 73.1504 2.33667 72.9125 2.23335C72.8491 2.20155 72.7857 2.1777 72.7223 2.15387C72.6509 2.12207 72.5716 2.09029 72.5003 2.0585C72.421 2.0267 72.3497 1.99492 72.2704 1.97107C72.096 1.90749 71.9295 1.84392 71.7551 1.78828C71.6916 1.76443 71.6361 1.74854 71.5727 1.73264C71.3428 1.6611 71.1129 1.60548 70.8751 1.54984C70.7958 1.53395 70.7086 1.5101 70.6293 1.4942C70.5421 1.4783 70.4549 1.46242 70.3677 1.44652C70.2012 1.41473 70.0426 1.39088 69.8762 1.37498C69.789 1.36705 69.7097 1.3591 69.6225 1.35115C74.3871 1.8598 78.1132 5.91315 78.1132 10.8248V149.791C78.1132 154.79 74.2523 158.899 69.3688 159.281C74.8073 158.891 79.12 154.337 79.12 148.782L79.0963 148.79Z" fill="url(#paint1_linear_112_607)"/>
<path d="M79.0962 11.8342V10.8328C79.0962 5.03092 74.3871 0.309972 68.5997 0.309972H10.8057C5.01834 0.309972 0.30127 5.03092 0.30127 10.8328V11.8342C0.30127 11.2302 0.356765 10.6341 0.451899 10.0539C0.467754 9.97441 0.48361 9.88698 0.499466 9.80751C0.578745 9.39423 0.681807 8.99684 0.808652 8.59945C0.832436 8.51997 0.856219 8.44845 0.887931 8.36897C1.08613 7.79673 1.33189 7.24834 1.62522 6.73174C1.66486 6.66021 1.7045 6.58867 1.74414 6.52509C1.85513 6.33435 1.97405 6.14361 2.10089 5.96081C2.14053 5.90517 2.18017 5.84159 2.21981 5.78596C2.44972 5.4601 2.70341 5.14219 2.97296 4.84018C3.02052 4.79249 3.06016 4.73685 3.10773 4.68917C3.14737 4.64943 3.17908 4.60969 3.21872 4.56996C3.27422 4.51432 3.32971 4.45074 3.39313 4.3951C3.44863 4.33947 3.51205 4.28383 3.56755 4.2282C3.61511 4.18051 3.67061 4.13283 3.71818 4.08514C3.87673 3.94208 4.04322 3.79903 4.2097 3.66392C4.2652 3.61623 4.32069 3.57649 4.37619 3.52881C4.6933 3.28243 5.02627 3.05194 5.36717 2.8453C5.43852 2.80556 5.50194 2.76582 5.57329 2.72608C5.72392 2.63865 5.88248 2.55918 6.03311 2.47176C6.09653 2.43997 6.15203 2.40817 6.21545 2.38433C7.09544 1.95515 8.03886 1.65314 9.02984 1.47829C9.1884 1.4465 9.35488 1.42265 9.52137 1.40675C9.68785 1.38291 9.85434 1.36701 10.0287 1.35907C10.116 1.35907 10.2032 1.34318 10.2904 1.34318C10.4489 1.33523 10.6154 1.32728 10.7819 1.32728H68.576C68.7425 1.32728 68.901 1.32728 69.0675 1.34318C69.1547 1.34318 69.2419 1.35112 69.3291 1.35907C69.4639 1.36701 69.6066 1.38291 69.7414 1.39881C69.7731 1.39881 69.8048 1.3988 69.8365 1.40675C70.003 1.43059 70.1695 1.45445 70.328 1.47829C70.4152 1.49418 70.5024 1.51008 70.5896 1.52597C70.6768 1.54187 70.7561 1.55776 70.8354 1.5816C71.0732 1.63724 71.3032 1.69288 71.5331 1.76441C71.5965 1.7803 71.6599 1.80414 71.7154 1.82004C71.8898 1.87567 72.0642 1.9313 72.2307 2.00283C72.31 2.03462 72.3813 2.05847 72.4606 2.09026C72.5399 2.12205 72.6112 2.15385 72.6826 2.18564C72.746 2.20948 72.8094 2.24126 72.8729 2.26511C73.1107 2.36843 73.3406 2.48765 73.5705 2.60687C73.6419 2.6466 73.7053 2.67839 73.7766 2.72608C73.9193 2.80555 74.0541 2.88504 74.1889 2.98041C74.2602 3.02015 74.3237 3.06783 74.395 3.11552C74.5932 3.25063 74.7914 3.39369 74.9817 3.53675C75.0372 3.58444 75.1006 3.62417 75.1561 3.67186C75.2829 3.78313 75.4177 3.88645 75.5446 3.99772C75.6 4.0454 75.6555 4.09309 75.711 4.14873C75.8934 4.31563 76.0678 4.49047 76.2343 4.67327C76.3453 4.79248 76.4563 4.91171 76.5514 5.03093C76.6069 5.09451 76.6544 5.15808 76.7099 5.22166C76.7654 5.28525 76.813 5.34883 76.8606 5.41241C76.9081 5.476 76.9557 5.53958 77.0033 5.60316C77.0508 5.66675 77.0984 5.73033 77.146 5.80186C77.1856 5.85749 77.2253 5.92106 77.2649 5.9767C77.3917 6.16744 77.5107 6.35819 77.6217 6.54893C77.6613 6.62046 77.7009 6.692 77.7406 6.76353C77.7802 6.82711 77.8119 6.89864 77.8516 6.96222C77.9071 7.06554 77.9546 7.16092 78.0022 7.26424C78.0418 7.33577 78.0735 7.40729 78.1052 7.48677C78.1845 7.65367 78.2559 7.82058 78.3193 7.99543C78.3431 8.05106 78.3669 8.1067 78.3827 8.17028C78.4144 8.24975 78.4382 8.32128 78.4699 8.40076C78.5016 8.48023 78.5254 8.55177 78.5492 8.63125C78.8743 9.64856 79.0566 10.7374 79.0566 11.866L79.0962 11.8342Z" fill="url(#paint2_linear_112_607)"/>
<path d="M69.0834 159.304C68.9248 159.312 68.7583 159.32 68.5997 159.32H10.8057C10.6392 159.32 10.4806 159.32 10.3221 159.304C5.31168 159.042 1.31604 154.878 1.31604 149.799V10.8329C1.31604 5.83376 5.17691 1.72479 10.0605 1.34329C10.1477 1.34329 10.2349 1.32739 10.3221 1.32739C10.4806 1.31944 10.6471 1.31149 10.8136 1.31149H68.6077C68.7742 1.31149 68.9327 1.31151 69.0992 1.32739C69.1864 1.32739 69.2736 1.33534 69.3608 1.34329C74.2523 1.73273 78.1052 5.84171 78.1052 10.8329V149.791C78.1052 154.878 74.1096 159.042 69.0992 159.296L69.0834 159.304ZM77.2887 10.8329C77.2887 6.31856 73.7687 2.49571 69.2895 2.13806C69.2102 2.13806 69.1309 2.12218 69.0437 2.12218C68.8931 2.11423 68.7424 2.10628 68.5918 2.10628H10.8057C10.6551 2.10628 10.5044 2.10628 10.3538 2.12218C10.2745 2.12218 10.1952 2.13013 10.116 2.13806C5.62879 2.49571 2.10883 6.31062 2.10883 10.8329V149.791C2.10883 154.425 5.716 158.247 10.3379 158.494H10.3617C10.5044 158.502 10.6551 158.51 10.8057 158.51H68.5997C68.7504 158.51 68.901 158.51 69.0437 158.502H69.0596C73.6815 158.255 77.2966 154.432 77.2966 149.791V10.8249L77.2887 10.8329Z" fill="#404040"/>
<path d="M77.2886 149.735V10.7693C77.2886 9.91093 77.1618 9.07642 76.924 8.28165C76.7337 7.65378 76.4721 7.04974 76.155 6.48546C76.0915 6.36624 76.0202 6.25497 75.9488 6.14371C75.8379 5.97681 75.7269 5.80991 75.6159 5.65094C75.2829 5.19792 74.9103 4.77669 74.498 4.3952C75.2591 5.72247 75.6952 7.27228 75.6952 8.90157V10.507C75.6952 10.6024 75.6952 10.6978 75.6952 10.7931V149.751C75.6952 149.847 75.6952 149.95 75.6952 150.045V151.611C75.6952 153.264 75.2591 154.814 74.498 156.149C76.2263 154.552 77.2966 152.263 77.2966 149.735H77.2886Z" fill="url(#paint3_linear_112_607)"/>
<path d="M69.012 157.699H68.9724C68.8455 157.699 68.7187 157.707 68.5918 157.707H10.8057C10.6709 157.707 10.5441 157.707 10.4172 157.707H10.3776H10.3617C6.18376 157.468 2.91748 154.003 2.91748 149.807V10.8407C2.91748 6.73965 6.10448 3.27443 10.1873 2.94858C10.2507 2.94858 10.3142 2.94064 10.3776 2.94064H10.4014C10.5361 2.94064 10.6789 2.93269 10.8136 2.93269H68.6077C68.7425 2.93269 68.8772 2.93269 69.012 2.94064H69.0358C69.0992 2.94064 69.1706 2.94064 69.234 2.95653C73.3089 3.27444 76.4959 6.73965 76.4959 10.8486V149.791C76.4959 154.003 73.2138 157.476 69.0199 157.691L69.012 157.699ZM74.3871 10.8327C74.3871 9.5134 73.9352 8.28946 73.19 7.30394C73.1504 7.24831 73.1107 7.20062 73.0631 7.15294C72.9363 7.00192 72.8015 6.85092 72.6588 6.70787C72.532 6.58865 72.4051 6.46942 72.2704 6.3502C72.1039 6.20715 71.9215 6.07999 71.7313 5.95282C71.541 5.8336 71.3507 5.72234 71.1525 5.61902C71.0574 5.57133 70.9543 5.52365 70.8513 5.47597C70.7482 5.42828 70.6452 5.38853 70.5421 5.35674C70.328 5.27727 70.114 5.21368 69.892 5.166C69.6225 5.10242 69.3529 5.06268 69.0675 5.03883C69.0437 5.03883 69.0199 5.03883 68.9882 5.03883H68.9248H68.901C68.8772 5.03883 68.8535 5.03883 68.8297 5.03883C68.8059 5.03883 68.7821 5.03883 68.7583 5.03883C68.7108 5.03883 68.6553 5.03883 68.6077 5.03883H10.8057C10.7581 5.03883 10.7106 5.03883 10.6551 5.03883C10.6075 5.03883 10.552 5.03883 10.5044 5.03883H10.4569H10.4172C10.3934 5.03883 10.3697 5.03883 10.338 5.03883C7.34915 5.27727 5.01043 7.81259 5.01043 10.8248V149.791C5.01043 152.851 7.38086 155.378 10.4172 155.585H10.5441C10.6392 155.593 10.7185 155.593 10.7978 155.593H68.5839C68.6632 155.593 68.7504 155.593 68.8376 155.593H68.8614H68.8852C68.901 155.593 68.9248 155.593 68.9407 155.593C68.9962 155.593 69.0517 155.593 69.1071 155.577C69.1309 155.577 69.1547 155.577 69.1864 155.577C69.234 155.577 69.2895 155.569 69.3371 155.561C69.4005 155.561 69.456 155.545 69.5194 155.537C69.5194 155.537 69.5194 155.537 69.5273 155.537C69.6145 155.529 69.7017 155.513 69.781 155.489C69.7969 155.489 69.8127 155.481 69.8286 155.481C69.8999 155.466 69.9713 155.45 70.0347 155.434C70.1378 155.41 70.2408 155.378 70.336 155.346C70.4152 155.322 70.4945 155.299 70.5738 155.267C70.661 155.235 70.7403 155.203 70.8275 155.164C70.994 155.092 71.1525 155.013 71.319 154.925C71.4617 154.846 71.6044 154.766 71.7392 154.671C71.7709 154.647 71.8026 154.631 71.8343 154.607C71.8898 154.567 71.9453 154.528 72.0008 154.488C72.0722 154.44 72.1435 154.385 72.2149 154.321C72.3496 154.21 72.4844 154.091 72.6113 153.963C72.6747 153.9 72.7381 153.836 72.8015 153.773C72.865 153.709 72.9204 153.638 72.9759 153.574C73.2059 153.304 73.412 153.01 73.5943 152.7C73.6815 152.549 73.7608 152.382 73.8401 152.223C73.9114 152.056 73.9828 151.897 74.0462 151.722C74.0779 151.635 74.1017 151.555 74.1255 151.468C74.181 151.277 74.2285 151.086 74.2603 150.888C74.2761 150.808 74.292 150.737 74.2999 150.657C74.3395 150.379 74.3633 150.101 74.3633 149.815V10.8486L74.3871 10.8327Z" fill="black"/>
<path d="M75.6872 10.4989V8.89349C75.6872 7.26421 75.2512 5.71439 74.4901 4.38712C73.1027 3.09959 71.2952 2.24918 69.2894 2.09022C69.2102 2.09022 69.1309 2.07434 69.0437 2.07434C68.893 2.06639 68.7424 2.05844 68.5918 2.05844H10.8056C10.655 2.05844 10.5044 2.05844 10.3537 2.07434C10.2745 2.07434 10.1952 2.08228 10.1159 2.09022C10.0049 2.09817 9.89393 2.11407 9.78294 2.12202C7.91197 2.34456 6.23126 3.16317 4.91524 4.37917C4.14624 5.71439 3.71021 7.2642 3.71021 8.90143V10.7771C3.71021 8.63916 4.6774 6.68402 6.20748 5.37264C7.30945 4.42686 8.70475 3.80694 10.2428 3.68773C10.2903 3.68773 10.3458 3.67977 10.3934 3.67977H10.4172H10.441C10.5599 3.67977 10.6867 3.67183 10.8136 3.67183H68.6076C68.7266 3.67183 68.8534 3.67182 68.9723 3.67977H69.0199C69.0754 3.67977 69.1309 3.68772 69.1864 3.69567C72.746 3.97384 75.5524 6.93834 75.6951 10.4989H75.6872Z" fill="url(#paint4_linear_112_607)"/>
<path d="M4.91523 4.43472C3.18695 6.04016 2.10876 8.3291 2.10876 10.8326V149.791C2.10876 152.318 3.18695 154.607 4.9073 156.205C4.14622 154.869 3.71019 153.32 3.71019 151.666V8.94904C3.71019 7.3118 4.14622 5.76199 4.91523 4.42677V4.43472Z" fill="url(#paint5_linear_112_607)"/>
<path d="M77.2886 149.735V10.7693C77.2886 9.91093 77.1618 9.07642 76.924 8.28165C76.7337 7.65378 76.4721 7.04974 76.155 6.48546C76.0915 6.36624 76.0202 6.25497 75.9488 6.14371C75.8458 5.97681 75.7348 5.80991 75.6159 5.65094C75.2829 5.18997 74.9024 4.76079 74.4901 4.3793C74.4901 4.3793 74.4901 4.38725 74.498 4.3952C75.2591 5.72247 75.6951 7.27228 75.6951 8.90157V151.611C75.6951 153.264 75.2591 154.814 74.498 156.149C76.2263 154.552 77.2966 152.263 77.2966 149.735H77.2886Z" fill="url(#paint6_linear_112_607)"/>
<path d="M74.387 149.791V10.8249C74.387 9.50555 73.9352 8.2816 73.1899 7.29608C73.1503 7.24045 73.1107 7.19276 73.0631 7.14508C72.9363 6.99406 72.8015 6.84306 72.6588 6.70001C72.5319 6.5808 72.4051 6.46156 72.2703 6.34235C72.1038 6.1993 71.9215 6.07213 71.7312 5.94496C71.5489 5.82574 71.3507 5.71449 71.1525 5.61118C71.0574 5.56349 70.9543 5.51578 70.8512 5.46809C70.7482 5.42041 70.6451 5.38863 70.542 5.34888C70.328 5.26941 70.1139 5.21378 69.892 5.15814C69.6224 5.09456 69.3529 5.05482 69.0675 5.03098C69.0357 5.03098 69.0199 5.03098 68.9882 5.03098H68.9485H68.9089C68.9089 5.03098 68.8534 5.03098 68.8296 5.03098C68.8058 5.03098 68.7821 5.03098 68.7583 5.03098C68.7107 5.03098 68.6552 5.03098 68.6076 5.03098H10.8056C10.7581 5.03098 10.7105 5.03098 10.655 5.03098C10.6074 5.03098 10.552 5.03098 10.5044 5.03098H10.4965H10.4568H10.441H10.4251C10.4013 5.03098 10.3775 5.03098 10.3458 5.03098C7.35703 5.26941 5.01831 7.80473 5.01831 10.8169V149.791C5.01831 152.851 7.38874 155.378 10.4251 155.585H10.552C10.6471 155.593 10.7264 155.593 10.8056 155.593H19.1457C19.6214 155.569 20.0099 155.195 20.0575 154.726C20.0575 154.695 20.0575 154.663 20.0575 154.631V154.615C20.0575 154.615 20.0575 154.607 20.0575 154.599C20.0575 154.424 20.0812 154.25 20.1129 154.083C20.1209 154.019 20.1288 153.963 20.1447 153.908C20.1605 153.836 20.1764 153.765 20.1922 153.693C20.2081 153.63 20.2239 153.566 20.2398 153.503C20.2398 153.487 20.2477 153.471 20.2556 153.455C20.2556 153.439 20.2636 153.423 20.2715 153.407C20.2715 153.391 20.2715 153.383 20.2794 153.367C20.2794 153.344 20.2953 153.328 20.3032 153.304C20.3111 153.28 20.3191 153.264 20.327 153.24C20.3429 153.185 20.3666 153.129 20.3904 153.073C20.4142 153.018 20.438 152.962 20.4618 152.914C20.4618 152.906 20.4618 152.898 20.4697 152.891C20.4697 152.891 20.4697 152.891 20.4697 152.883C20.4935 152.835 20.5173 152.795 20.5331 152.747C20.549 152.708 20.5728 152.668 20.5965 152.628C20.5965 152.62 20.6124 152.604 20.6203 152.589C20.6283 152.565 20.6441 152.549 20.652 152.533C20.6679 152.509 20.6838 152.477 20.6996 152.453C20.6996 152.453 20.6996 152.438 20.7075 152.43C20.7075 152.422 20.7234 152.406 20.7234 152.398C20.7313 152.382 20.7472 152.366 20.7551 152.35C20.763 152.326 20.7789 152.31 20.7947 152.294C20.8027 152.279 20.8185 152.263 20.8265 152.247C20.8265 152.239 20.8344 152.231 20.8423 152.223C20.8582 152.199 20.8661 152.183 20.882 152.167C20.8899 152.151 20.8978 152.143 20.9137 152.128C20.9216 152.104 20.9374 152.088 20.9533 152.072C20.9533 152.072 20.9533 152.064 20.9612 152.056C20.9612 152.056 20.9612 152.048 20.9692 152.048C20.985 152.024 21.0009 152.008 21.0167 151.985C21.0167 151.977 21.0247 151.969 21.0326 151.961C21.0484 151.937 21.0643 151.913 21.0881 151.897C21.0881 151.897 21.1119 151.865 21.1277 151.849C21.1515 151.826 21.1753 151.794 21.1991 151.77C21.207 151.754 21.2228 151.738 21.2387 151.722C21.2387 151.722 21.2704 151.69 21.2863 151.675C21.3021 151.659 21.318 151.635 21.3418 151.619C21.3576 151.603 21.3735 151.587 21.3893 151.571C21.421 151.539 21.4528 151.508 21.4845 151.476C21.5083 151.452 21.532 151.428 21.5558 151.404C21.5717 151.388 21.5875 151.38 21.6034 151.365C21.6192 151.349 21.6351 151.341 21.651 151.325C21.6747 151.309 21.6906 151.285 21.7144 151.269C21.7144 151.269 21.7857 151.206 21.8254 151.182C21.8491 151.166 21.8729 151.15 21.8888 151.134C21.9046 151.118 21.9284 151.102 21.9443 151.086C21.9443 151.086 21.9601 151.078 21.9681 151.071C21.9918 151.055 22.0156 151.031 22.0473 151.015C22.0553 151.007 22.0711 150.999 22.0791 150.991C22.0949 150.983 22.1108 150.967 22.1266 150.959C22.1504 150.943 22.1742 150.927 22.2059 150.912C22.2376 150.888 22.2773 150.864 22.309 150.848C22.3565 150.824 22.3962 150.792 22.4437 150.776C22.4596 150.769 22.4755 150.753 22.4913 150.745C22.4913 150.745 22.4913 150.745 22.4992 150.745C22.5309 150.729 22.5627 150.713 22.5944 150.697C22.6182 150.681 22.6499 150.665 22.6816 150.649C22.7054 150.633 22.7371 150.625 22.7609 150.61C22.7767 150.61 22.7846 150.594 22.8084 150.594C22.8163 150.594 22.8322 150.586 22.8481 150.578C22.856 150.578 22.8718 150.57 22.8877 150.562C22.9511 150.538 23.0066 150.514 23.0621 150.498C23.0938 150.482 23.1255 150.474 23.1652 150.459C23.1969 150.451 23.2286 150.435 23.2603 150.427C23.2603 150.427 23.3079 150.411 23.3317 150.403C23.3792 150.387 23.4268 150.379 23.4823 150.363C23.4902 150.363 23.5061 150.363 23.514 150.355C23.5774 150.339 23.6408 150.323 23.7043 150.308C23.7518 150.3 23.8073 150.284 23.8549 150.284C23.8787 150.284 23.9025 150.276 23.9342 150.276C23.9342 150.276 23.95 150.276 23.958 150.276C24.0135 150.268 24.0689 150.26 24.1244 150.252C24.1403 150.252 24.1482 150.252 24.1641 150.252C24.1641 150.252 24.172 150.252 24.1799 150.252C24.2037 150.252 24.2354 150.252 24.2592 150.252C24.2751 150.252 24.2909 150.252 24.3068 150.252C24.3464 150.252 24.3781 150.252 24.4178 150.252C24.4733 150.252 24.5288 150.252 24.5843 150.252C24.6001 150.252 24.6239 150.252 24.6477 150.252H54.726C54.726 150.252 54.7656 150.252 54.7894 150.252C54.8449 150.252 54.9004 150.252 54.9559 150.252C54.9955 150.252 55.0272 150.252 55.0669 150.252C55.0827 150.252 55.0986 150.252 55.1144 150.252C55.1382 150.252 55.1699 150.252 55.1937 150.252C55.1937 150.252 55.2016 150.252 55.2096 150.252C55.2254 150.252 55.2333 150.252 55.2492 150.252C55.3047 150.252 55.3681 150.26 55.4157 150.276C55.4157 150.276 55.4315 150.276 55.4395 150.276C55.4395 150.276 55.487 150.284 55.5187 150.292C55.5663 150.292 55.6218 150.308 55.6694 150.315C55.7328 150.331 55.7962 150.339 55.8596 150.363C55.8676 150.363 55.8834 150.363 55.8914 150.371C55.9389 150.379 55.9865 150.395 56.042 150.411C56.0658 150.411 56.0896 150.427 56.1133 150.435C56.1133 150.435 56.1768 150.459 56.2085 150.466C56.2402 150.474 56.2798 150.49 56.3115 150.506C56.375 150.53 56.4305 150.546 56.486 150.57C56.4939 150.57 56.5097 150.578 56.5256 150.586C56.5414 150.586 56.5494 150.594 56.5652 150.602C56.5811 150.602 56.5969 150.61 56.6128 150.617C56.6366 150.625 56.6683 150.641 56.6921 150.657C56.7238 150.673 56.7555 150.681 56.7793 150.705C56.811 150.721 56.8427 150.737 56.8744 150.753C56.8744 150.753 56.8744 150.753 56.8823 150.753C56.8982 150.761 56.9141 150.769 56.9299 150.784C56.9775 150.808 57.0171 150.832 57.0647 150.856C57.0964 150.872 57.136 150.896 57.1677 150.92C57.1915 150.935 57.2232 150.951 57.247 150.967C57.2629 150.975 57.2787 150.991 57.2946 150.999C57.3025 150.999 57.3184 151.015 57.3263 151.023C57.3501 151.039 57.3818 151.055 57.4056 151.078C57.4135 151.078 57.4214 151.086 57.4294 151.094C57.4452 151.11 57.469 151.118 57.4849 151.142C57.5086 151.158 57.5324 151.174 57.5483 151.19C57.5879 151.214 57.6196 151.245 57.6593 151.277C57.6593 151.277 57.7068 151.317 57.7227 151.333C57.7385 151.349 57.7544 151.357 57.7703 151.373C57.7861 151.388 57.802 151.396 57.8178 151.412C57.8416 151.436 57.8654 151.46 57.8892 151.484C57.9209 151.516 57.9526 151.547 57.9843 151.579C58.0002 151.595 58.016 151.611 58.0319 151.627C58.0477 151.643 58.0715 151.667 58.0874 151.682C58.1032 151.698 58.1191 151.714 58.1349 151.73C58.1587 151.754 58.1825 151.786 58.2063 151.81C58.2221 151.818 58.2301 151.833 58.238 151.841C58.2539 151.857 58.2618 151.873 58.2776 151.889C58.2776 151.889 58.3173 151.937 58.3331 151.953C58.3331 151.953 58.349 151.969 58.349 151.977C58.3648 152 58.3807 152.016 58.3966 152.04C58.3966 152.04 58.4045 152.04 58.4045 152.048C58.4045 152.056 58.4045 152.056 58.4124 152.064C58.4283 152.08 58.4441 152.104 58.4521 152.12C58.46 152.128 58.4758 152.143 58.4838 152.159C58.4996 152.175 58.5076 152.199 58.5234 152.215C58.5234 152.223 58.5393 152.231 58.5393 152.239C58.5472 152.255 58.563 152.271 58.571 152.287C58.5868 152.302 58.5948 152.326 58.6106 152.342C58.6185 152.358 58.6344 152.374 58.6423 152.39C58.6423 152.398 58.6582 152.414 58.6582 152.422C58.6582 152.422 58.6582 152.438 58.6661 152.445C58.682 152.469 58.6978 152.493 58.7137 152.525C58.7216 152.541 58.7375 152.565 58.7454 152.581C58.7533 152.596 58.7612 152.604 58.7692 152.62C58.793 152.66 58.8088 152.7 58.8326 152.74C58.8564 152.787 58.8802 152.827 58.896 152.875C58.896 152.875 58.896 152.875 58.896 152.883C58.896 152.883 58.896 152.898 58.9039 152.906C58.9277 152.962 58.9515 153.01 58.9753 153.065C58.9991 153.121 59.0229 153.177 59.0387 153.232C59.0387 153.256 59.0546 153.272 59.0625 153.296C59.0625 153.32 59.0784 153.336 59.0863 153.359C59.0863 153.367 59.0942 153.383 59.0942 153.399C59.0942 153.415 59.1021 153.431 59.1101 153.447C59.1101 153.463 59.118 153.479 59.1259 153.495C59.1418 153.558 59.1656 153.622 59.1735 153.685C59.1893 153.757 59.2052 153.82 59.2211 153.892C59.2369 153.956 59.2448 154.011 59.2528 154.067C59.2845 154.234 59.3003 154.409 59.3083 154.583C59.3083 154.583 59.3083 154.591 59.3083 154.599V154.615C59.3083 154.615 59.3083 154.679 59.3083 154.711C59.3558 155.179 59.7443 155.553 60.22 155.577H68.5601C68.6394 155.577 68.7266 155.577 68.8138 155.577H68.8376H68.8851H68.9327C68.9802 155.577 69.0357 155.577 69.0833 155.561C69.1071 155.561 69.1309 155.561 69.1626 155.561C69.2102 155.561 69.2657 155.553 69.3132 155.545C69.3766 155.545 69.4321 155.529 69.4956 155.521C69.4956 155.521 69.4956 155.521 69.5035 155.521C69.5907 155.505 69.6779 155.489 69.7572 155.474C69.773 155.474 69.7889 155.466 69.8047 155.466C69.8761 155.45 69.9474 155.434 70.0109 155.418C70.1139 155.394 70.217 155.362 70.3121 155.33C70.3914 155.307 70.4707 155.275 70.55 155.251C70.6372 155.219 70.7164 155.187 70.8037 155.148C70.9701 155.076 71.1287 154.997 71.2952 154.909C71.4379 154.83 71.5806 154.75 71.7154 154.655C71.7471 154.631 71.7788 154.615 71.8105 154.591C71.866 154.552 71.9215 154.512 71.977 154.472C72.0483 154.417 72.1197 154.361 72.191 154.305C72.3258 154.194 72.4606 154.075 72.5874 153.948C72.6508 153.884 72.7143 153.82 72.7777 153.757C72.8411 153.693 72.8966 153.622 72.9521 153.558C73.182 153.288 73.3881 152.994 73.5705 152.684C73.6577 152.533 73.737 152.366 73.8162 152.207C73.8876 152.04 73.9589 151.881 74.0224 151.706C74.0541 151.619 74.0779 151.539 74.1016 151.452C74.1571 151.261 74.2047 151.071 74.2364 150.872C74.2523 150.792 74.2602 150.721 74.2761 150.641C74.3157 150.363 74.3395 150.085 74.3395 149.799L74.387 149.791Z" fill="url(#paint7_linear_112_607)"/>
<path d="M4.02734 13.3919C4.02734 13.3919 4.02734 13.4078 4.01941 13.4237C4.02734 13.4158 4.02734 13.4078 4.03526 13.3919H4.02734ZM5.55741 10.8248C5.55741 10.8248 5.56534 10.8169 5.57327 10.8169C5.58912 10.7851 5.61291 10.7692 5.62876 10.7374C5.59705 10.7692 5.5812 10.793 5.54949 10.8248H5.55741ZM9.26765 8.08286C9.26765 8.08286 9.339 8.06696 9.37071 8.05106C9.37864 8.04311 9.38657 8.04312 9.40242 8.03517C9.36278 8.05106 9.31522 8.07491 9.26765 8.08286ZM71.8026 7.43909C71.8026 7.43909 71.8105 7.43909 71.8105 7.44704C71.8422 7.44704 71.8819 7.44702 71.9056 7.45497C71.866 7.44702 71.8343 7.44704 71.8026 7.43909ZM76.9715 162.952C76.9715 162.952 76.9557 162.984 76.9319 163C76.9715 162.96 77.0033 162.928 77.035 162.905C77.0191 162.921 76.9953 162.944 76.9636 162.952H76.9715ZM77.0984 9.90288C77.0984 9.90288 77.146 9.95851 77.1777 9.9903C77.1935 10.0062 77.2252 10.038 77.249 10.0459C77.2014 9.99826 77.1539 9.94261 77.1063 9.90288H77.0984Z" fill="url(#paint8_linear_112_607)"/>
<path opacity="0.2" d="M79.889 123.444C79.8414 123.484 79.7701 123.524 79.6987 123.524C79.5323 123.524 79.3975 123.388 79.3975 123.222V149.791C79.3975 155.775 74.5615 160.624 68.5918 160.624H64.5486L0 95.9052V10.8327C0 4.84802 4.83599 -9.15527e-05 10.8057 -9.15527e-05H68.5918C74.5615 -9.15527e-05 79.3975 4.84802 79.3975 10.8327V105.379C79.3975 105.212 79.5323 105.077 79.6987 105.077C79.778 105.077 79.8414 105.109 79.889 105.156C79.9604 105.212 79.9921 105.291 79.9921 105.379V123.222C79.9921 123.309 79.9524 123.388 79.889 123.444Z" fill="url(#paint9_linear_112_607)"/>
</g>
<defs>
<linearGradient id="paint0_linear_112_607" x1="0.301263" y1="80.3355" x2="1.46666" y2="80.3355" gradientUnits="userSpaceOnUse">
<stop stop-color="#666666"/>
<stop offset="0.06" stop-color="#727272"/>
<stop offset="0.33" stop-color="#A8A8A8"/>
<stop offset="0.57" stop-color="#CFCFCF"/>
<stop offset="0.76" stop-color="#E8E8E8"/>
<stop offset="0.87" stop-color="#F1F1F1"/>
<stop offset="0.95" stop-color="#F7F7F7"/>
<stop offset="1" stop-color="white"/>
</linearGradient>
<linearGradient id="paint1_linear_112_607" x1="78.1211" y1="80.3278" x2="79.2707" y2="80.3278" gradientUnits="userSpaceOnUse">
<stop stop-color="white"/>
<stop offset="0.05" stop-color="#F7F7F7"/>
<stop offset="0.13" stop-color="#F1F1F1"/>
<stop offset="0.24" stop-color="#E8E8E8"/>
<stop offset="0.43" stop-color="#CFCFCF"/>
<stop offset="0.67" stop-color="#A8A8A8"/>
<stop offset="0.94" stop-color="#727272"/>
<stop offset="1" stop-color="#666666"/>
</linearGradient>
<linearGradient id="paint2_linear_112_607" x1="39.7027" y1="0.302024" x2="39.7027" y2="9.53728" gradientUnits="userSpaceOnUse">
<stop stop-color="#F1F1F1"/>
<stop offset="0.12" stop-color="#E3E3E3"/>
<stop offset="0.34" stop-color="#BEBEBE"/>
<stop offset="0.63" stop-color="#838383"/>
<stop offset="1" stop-color="#333333"/>
</linearGradient>
<linearGradient id="paint3_linear_112_607" x1="74.4901" y1="80.2722" x2="77.2887" y2="80.2722" gradientUnits="userSpaceOnUse">
<stop stop-color="#F0F0F0"/>
<stop offset="0.14" stop-color="#B7B7B7"/>
<stop offset="0.27" stop-color="#888888"/>
<stop offset="0.4" stop-color="#636363"/>
<stop offset="0.51" stop-color="#484848"/>
<stop offset="0.62" stop-color="#383838"/>
<stop offset="0.7" stop-color="#333333"/>
</linearGradient>
<linearGradient id="paint4_linear_112_607" x1="3.71813" y1="6.42969" x2="75.6872" y2="6.42969" gradientUnits="userSpaceOnUse">
<stop/>
<stop offset="0.1" stop-color="#141414"/>
<stop offset="0.26" stop-color="#2C2C2C"/>
<stop offset="0.4" stop-color="#3A3A3A"/>
<stop offset="0.52" stop-color="#404040"/>
<stop offset="0.63" stop-color="#383838"/>
<stop offset="0.79" stop-color="#232323"/>
<stop offset="0.99" stop-color="#020202"/>
<stop offset="1"/>
</linearGradient>
<linearGradient id="paint5_linear_112_607" x1="2.10876" y1="80.3197" x2="3.77361" y2="80.3197" gradientUnits="userSpaceOnUse">
<stop stop-color="#404040"/>
<stop offset="0.64" stop-color="#191919"/>
<stop offset="1" stop-color="#0A0A0A"/>
</linearGradient>
<linearGradient id="paint6_linear_112_607" x1="74.4822" y1="80.2642" x2="77.2886" y2="80.2642" gradientUnits="userSpaceOnUse">
<stop stop-color="#0A0A0A"/>
<stop offset="0.36" stop-color="#191919"/>
<stop offset="1" stop-color="#404040"/>
</linearGradient>
<linearGradient id="paint7_linear_112_607" x1="-13.4932" y1="133.641" x2="93.157" y2="27.2576" gradientUnits="userSpaceOnUse">
<stop stop-color="#F2F3F4"/>
<stop offset="0.36" stop-color="#EDEEEE"/>
<stop offset="0.78" stop-color="#DEDFE0"/>
<stop offset="1" stop-color="#D5D6D6"/>
</linearGradient>
<linearGradient id="paint8_linear_112_607" x1="40.6302" y1="7.43909" x2="40.6302" y2="163" gradientUnits="userSpaceOnUse">
<stop stop-color="white"/>
<stop offset="0.85" stop-color="white"/>
<stop offset="1" stop-color="white"/>
</linearGradient>
<linearGradient id="paint9_linear_112_607" x1="39.996" y1="-9.15527e-05" x2="39.996" y2="160.624" gradientUnits="userSpaceOnUse">
<stop offset="0.2" stop-color="white"/>
<stop offset="0.89" stop-color="white"/>
<stop offset="1" stop-color="white"/>
</linearGradient>
<clipPath id="clip0_112_607">
<rect width="80" height="163" fill="white" transform="matrix(1 0 0 -1 0 163)"/>
</clipPath>
</defs>
</svg>
