<svg width="80" height="163" viewBox="0 0 80 163" fill="none" xmlns="http://www.w3.org/2000/svg">
<g clip-path="url(#clip0_112_524)">
<path d="M68.5997 2.37646H10.8057C4.83599 2.37646 0 7.22458 0 13.2092V152.175C0 158.152 4.83599 163 10.7977 163H68.5918C74.5536 163 79.3896 158.152 79.3896 152.175V13.2092C79.3896 7.23253 74.5536 2.38441 68.5918 2.38441L68.5997 2.37646ZM79.0962 151.166C79.0962 152.294 78.9139 153.383 78.5888 154.401C78.5651 154.48 78.5413 154.56 78.5096 154.631C78.4858 154.711 78.4541 154.782 78.4224 154.862C78.3986 154.917 78.3827 154.981 78.3589 155.036C78.2876 155.203 78.2162 155.378 78.1449 155.545C78.1132 155.617 78.0735 155.696 78.0418 155.768C77.9943 155.871 77.9388 155.974 77.8912 156.07C77.8595 156.141 77.8198 156.205 77.7802 156.268C77.7406 156.34 77.7009 156.411 77.6613 156.483C77.5503 156.674 77.4314 156.864 77.3045 157.055C77.2649 157.111 77.2253 157.174 77.1856 157.23C77.138 157.294 77.0905 157.357 77.0429 157.429C76.9953 157.492 76.9478 157.556 76.9002 157.619C76.8526 157.683 76.8051 157.747 76.7496 157.81C76.702 157.874 76.6465 157.937 76.591 158.001C76.488 158.12 76.377 158.247 76.2739 158.359C76.1074 158.541 75.933 158.716 75.7507 158.883C75.6952 158.931 75.6397 158.986 75.5842 159.034C75.4573 159.145 75.3305 159.257 75.1957 159.36C75.1402 159.408 75.0847 159.447 75.0213 159.495C74.831 159.646 74.6328 159.781 74.4346 159.916C74.3712 159.964 74.2999 160.004 74.2285 160.051C74.0937 160.139 73.951 160.218 73.8163 160.306C73.7449 160.346 73.6815 160.385 73.6101 160.425C73.3802 160.552 73.1503 160.663 72.9125 160.767C72.8491 160.799 72.7857 160.822 72.7222 160.846C72.6509 160.878 72.5716 160.91 72.5002 160.942C72.421 160.973 72.3496 161.005 72.2703 161.029C72.0959 161.093 71.9294 161.156 71.755 161.212C71.6916 161.236 71.6361 161.252 71.5727 161.267C71.3428 161.339 71.1129 161.395 70.875 161.45C70.7958 161.466 70.7085 161.49 70.6293 161.506C70.5421 161.522 70.4549 161.538 70.3677 161.554C70.2091 161.585 70.0426 161.609 69.8761 161.625C69.8761 161.625 69.8127 161.633 69.781 161.633C69.7572 161.633 69.7334 161.633 69.7096 161.633C69.7017 161.633 69.6938 161.633 69.6779 161.633C69.8286 161.617 69.9713 161.593 70.1219 161.569C70.1932 161.554 70.2646 161.546 70.3439 161.53C70.4152 161.514 70.4866 161.498 70.5579 161.49C70.772 161.442 70.986 161.395 71.2001 161.331C71.2714 161.315 71.3428 161.291 71.4062 161.267C71.541 161.228 71.6837 161.18 71.8185 161.132C72.0246 161.061 72.2228 160.981 72.421 160.894C72.4844 160.87 72.5557 160.838 72.6192 160.807C72.6826 160.775 72.746 160.743 72.8094 160.711C72.9363 160.648 73.0631 160.584 73.19 160.512C73.3168 160.441 73.4357 160.369 73.5626 160.298C73.6736 160.226 73.7846 160.163 73.8876 160.091C73.9035 160.091 73.9114 160.075 73.9193 160.067C74.0937 159.948 74.2682 159.821 74.4346 159.694C74.4901 159.654 74.5456 159.606 74.6011 159.559C74.7597 159.432 74.9103 159.296 75.0609 159.161C75.4256 158.82 75.7665 158.454 76.0757 158.065C76.1233 158.009 76.1629 157.953 76.2026 157.898C76.6465 157.31 77.0271 156.666 77.3283 155.982C77.3759 155.871 77.4234 155.76 77.4631 155.648C77.6771 155.108 77.8436 154.544 77.9546 153.956C77.9784 153.844 77.9943 153.725 78.018 153.606C78.0894 153.137 78.129 152.652 78.129 152.167V13.2092C78.129 8.29752 74.4029 4.24418 69.6383 3.73553C69.5511 3.72758 69.4718 3.71963 69.3846 3.71168C69.2974 3.71168 69.2102 3.69579 69.123 3.69579C68.9644 3.68784 68.7979 3.67989 68.6394 3.67989H10.8057C10.6392 3.67989 10.4806 3.67989 10.3221 3.69579C5.31166 3.95806 1.31602 8.12267 1.31602 13.2013V152.167C1.31602 157.055 5.01041 161.093 9.74334 161.633C9.67991 161.633 9.61649 161.625 9.55307 161.617C9.38658 161.593 9.2201 161.57 9.06154 161.546C8.07056 161.379 7.12714 161.069 6.24715 160.64C6.18373 160.608 6.12823 160.576 6.06481 160.552C5.90625 160.473 5.75562 160.385 5.60499 160.298C5.53364 160.258 5.47022 160.218 5.39887 160.179C5.05797 159.972 4.725 159.742 4.40789 159.495C4.35239 159.447 4.2969 159.408 4.2414 159.36C4.07492 159.225 3.90843 159.082 3.74988 158.939C3.69438 158.891 3.64681 158.843 3.59925 158.796C3.53582 158.74 3.48033 158.684 3.42483 158.629C3.36934 158.573 3.31384 158.51 3.25042 158.454C3.21078 158.414 3.17907 158.375 3.13943 158.335C3.09186 158.287 3.0443 158.231 3.00466 158.184C2.73511 157.882 2.48142 157.564 2.25151 157.238C2.21187 157.182 2.17223 157.119 2.13259 157.063C2.00575 156.88 1.88683 156.69 1.77584 156.499C1.7362 156.427 1.69656 156.364 1.65692 156.292C1.36359 155.768 1.11783 155.219 0.919631 154.655C0.88792 154.576 0.864136 154.504 0.840353 154.424C0.713507 154.027 0.610445 153.63 0.531166 153.216C0.515311 153.137 0.499455 153.05 0.483599 152.97C0.388465 152.39 0.33297 151.794 0.33297 151.19V13.2092C0.33297 13.1059 0.33297 13.0026 0.33297 12.8993C0.33297 12.8198 0.33297 12.7483 0.340898 12.6688C0.348826 12.5019 0.364681 12.335 0.380537 12.1681C0.388465 12.0806 0.396393 11.9932 0.412249 11.9137C0.412249 11.8661 0.428104 11.8263 0.428104 11.7786C0.428104 11.723 0.44396 11.6674 0.451888 11.6117C0.467744 11.5243 0.475671 11.4369 0.491527 11.3495C0.515311 11.1984 0.547022 11.0474 0.578734 10.9044C0.594589 10.8329 0.610445 10.7613 0.634229 10.6818C0.689723 10.4593 0.745218 10.2527 0.816569 10.0381C0.840353 9.9745 0.864136 9.90297 0.879992 9.83938C0.911704 9.75991 0.935487 9.67248 0.967198 9.593C0.990982 9.52147 1.01477 9.45789 1.04648 9.39431C1.07026 9.33868 1.08612 9.28304 1.1099 9.22741C1.13368 9.16383 1.16539 9.0923 1.18918 9.02872C1.21296 8.98103 1.22882 8.93334 1.2526 8.88566C1.28431 8.81413 1.31602 8.7426 1.35566 8.67107C1.41116 8.5439 1.47458 8.42469 1.54593 8.29752C1.57764 8.23394 1.60935 8.17036 1.64899 8.10678C1.68863 8.03525 1.72827 7.96372 1.76791 7.89219C2.06124 7.39943 2.38628 6.92257 2.75889 6.48544C2.81439 6.42186 2.86196 6.35828 2.91745 6.2947C2.98087 6.22317 3.03637 6.15958 3.09979 6.08805C3.20285 5.97679 3.30592 5.86552 3.41691 5.7622C3.53582 5.64298 3.65474 5.53171 3.77366 5.42045C3.89258 5.30918 4.01942 5.20586 4.14627 5.10254C4.20969 5.0469 4.27311 4.99922 4.33654 4.95153C4.46338 4.84821 4.59816 4.75284 4.73293 4.65746C4.8677 4.56209 5.00248 4.46672 5.13725 4.37929C5.27202 4.29187 5.41473 4.20444 5.55743 4.12497C5.62878 4.08523 5.70013 4.04549 5.77148 4.00575C5.84283 3.96601 5.91418 3.92627 5.98553 3.88653C6.05688 3.84679 6.12823 3.80706 6.20751 3.77527C6.27886 3.73553 6.35814 3.70374 6.42949 3.664C6.58012 3.59247 6.73075 3.52889 6.88138 3.4653C6.95273 3.43351 7.02408 3.40172 7.10336 3.37788C7.10336 3.37788 7.11922 3.37788 7.12714 3.36993C7.19849 3.33814 7.27777 3.3143 7.34912 3.29045C7.42047 3.26661 7.49975 3.24277 7.5711 3.21098C7.65831 3.18713 7.73759 3.15534 7.82479 3.1315C7.90407 3.10766 7.98335 3.08381 8.06263 3.05997C8.14191 3.03613 8.22119 3.01228 8.30839 2.99639C8.38767 2.97254 8.47488 2.95665 8.55416 2.94075C8.72064 2.90102 8.88713 2.86922 9.05361 2.84538C9.13289 2.82949 9.2201 2.81359 9.3073 2.80564C9.48964 2.7818 9.67198 2.75796 9.85433 2.74206C9.99703 2.72617 10.1477 2.71822 10.2904 2.71027C10.3776 2.71027 10.4727 2.70232 10.5599 2.70232C10.6471 2.70232 10.7422 2.70232 10.8295 2.70232H68.6235C68.7107 2.70232 68.8059 2.70232 68.8931 2.70232C68.9644 2.70232 69.0437 2.70232 69.1151 2.71027C69.2815 2.71822 69.4559 2.73411 69.6224 2.75001C69.7096 2.75796 69.7889 2.7659 69.8761 2.7818C69.9633 2.78975 70.0505 2.80564 70.1298 2.81359C70.2091 2.82154 70.2963 2.83743 70.3835 2.85333C70.4707 2.86922 70.55 2.88512 70.6293 2.90102C70.7085 2.91691 70.7958 2.93281 70.875 2.95665C70.9543 2.97254 71.0257 2.98844 71.097 3.00434C71.1129 3.00434 71.1287 3.01228 71.1446 3.02023C71.2159 3.03613 71.2873 3.05997 71.3586 3.07587C71.4538 3.09971 71.5568 3.1315 71.652 3.16329C71.7154 3.18713 71.7867 3.20303 71.8502 3.22687C71.9929 3.27456 72.1435 3.32224 72.2862 3.37788C72.3813 3.40967 72.4844 3.44941 72.5716 3.48915C72.643 3.52094 72.7064 3.54478 72.7777 3.57657C72.857 3.60836 72.9283 3.64015 73.0076 3.67989C73.079 3.71168 73.1583 3.75142 73.2296 3.78321C73.7608 4.04549 74.2602 4.3475 74.7359 4.68925C74.7914 4.72899 74.8548 4.76873 74.9103 4.81642C75.1164 4.97537 75.3226 5.13433 75.5128 5.30918C75.6 5.38071 75.6872 5.46018 75.7665 5.53966C76.1074 5.85757 76.4245 6.19138 76.7099 6.54902C76.7654 6.61261 76.813 6.67619 76.8606 6.73977C76.9636 6.87488 77.0667 7.00999 77.1618 7.1451C77.2094 7.21663 77.257 7.28021 77.3045 7.35174C77.3838 7.47096 77.4631 7.59018 77.5424 7.71734C77.582 7.78092 77.6137 7.8445 77.6534 7.90809C77.7247 8.0273 77.7881 8.14652 77.8515 8.26573C77.8833 8.32137 77.915 8.38495 77.9467 8.44058C78.0497 8.64722 78.1528 8.84592 78.24 9.06051C78.2638 9.11614 78.2876 9.17177 78.3114 9.22741C78.3986 9.43405 78.4779 9.64864 78.5492 9.86323C78.5809 9.9427 78.6047 10.0222 78.6285 10.1017C78.7712 10.5626 78.8822 11.0395 78.9614 11.5243C78.9694 11.572 78.9773 11.6276 78.9852 11.6833C79.0011 11.7707 79.009 11.8502 79.0169 11.9376C79.0249 12.025 79.0407 12.1124 79.0487 12.1919C79.0566 12.2793 79.0645 12.3668 79.0724 12.4542C79.0804 12.6131 79.0883 12.7721 79.0962 12.9311C79.0962 13.0344 79.0962 13.1377 79.0962 13.241V151.198V151.166Z" fill="#C7C7C7"/>
<path d="M9.79883 161.641C9.71163 161.633 9.63235 161.625 9.54514 161.617C9.37866 161.593 9.21217 161.57 9.05362 161.546C8.06263 161.379 7.11922 161.069 6.23923 160.64C6.1758 160.608 6.12031 160.576 6.05689 160.552C5.89833 160.473 5.7477 160.385 5.59707 160.298C5.52572 160.258 5.4623 160.218 5.39095 160.179C5.05005 159.972 4.71708 159.742 4.39996 159.495C4.34447 159.447 4.28897 159.408 4.23348 159.36C4.06699 159.225 3.90051 159.082 3.74195 158.939C3.68646 158.891 3.63889 158.843 3.59132 158.796C3.5279 158.74 3.47241 158.684 3.41691 158.629C3.36142 158.573 3.30592 158.51 3.2425 158.454C3.20286 158.414 3.17115 158.375 3.13151 158.335C3.08394 158.287 3.03637 158.231 2.99673 158.184C2.72719 157.882 2.4735 157.564 2.24359 157.238C2.20395 157.182 2.16431 157.119 2.12467 157.063C1.99782 156.88 1.87891 156.69 1.76792 156.499C1.72828 156.427 1.68864 156.364 1.649 156.292C1.35567 155.768 1.1099 155.219 0.911707 154.655C0.879996 154.576 0.856212 154.504 0.832429 154.425C0.705583 154.027 0.602521 153.63 0.523243 153.216C0.507387 153.137 0.491531 153.05 0.475675 152.97C0.380541 152.39 0.325046 151.794 0.325046 151.19V14.2106C0.301263 8.57571 4.74879 3.95808 10.3141 3.6958C5.30374 3.95808 1.3081 8.12269 1.3081 13.2013V152.167C1.3081 157.079 5.03419 161.132 9.79883 161.641Z" fill="url(#paint0_linear_112_524)"/>
<path d="M79.0963 14.2105V151.166C79.0963 152.294 78.9139 153.383 78.5889 154.401C78.5651 154.48 78.5413 154.559 78.5096 154.631C78.4858 154.71 78.4541 154.782 78.4224 154.861C78.3986 154.917 78.3827 154.981 78.359 155.036C78.2876 155.203 78.2163 155.378 78.1449 155.545C78.1132 155.617 78.0736 155.696 78.0419 155.768C77.9943 155.871 77.9388 155.974 77.8912 156.07C77.8595 156.141 77.8199 156.205 77.7802 156.268C77.7406 156.34 77.701 156.411 77.6613 156.483C77.5503 156.674 77.4314 156.864 77.3046 157.055C77.2649 157.111 77.2253 157.174 77.1856 157.23C77.1381 157.294 77.0905 157.357 77.0429 157.429C76.9954 157.492 76.9478 157.556 76.9002 157.619C76.8527 157.683 76.7972 157.747 76.7496 157.81C76.702 157.874 76.6465 157.937 76.5911 158.001C76.488 158.12 76.377 158.247 76.2739 158.358C76.1075 158.541 75.933 158.716 75.7507 158.883C75.6952 158.931 75.6397 158.978 75.5842 159.034C75.4574 159.145 75.3305 159.257 75.1957 159.36C75.1403 159.408 75.0848 159.447 75.0213 159.495C74.8311 159.646 74.6329 159.781 74.4347 159.916C74.3713 159.964 74.2999 160.004 74.2285 160.051C74.0938 160.139 73.9511 160.218 73.8163 160.306C73.745 160.345 73.6815 160.385 73.6102 160.425C73.3803 160.552 73.1504 160.663 72.9125 160.767C72.8491 160.798 72.7857 160.822 72.7223 160.846C72.6509 160.878 72.5716 160.91 72.5003 160.941C72.421 160.973 72.3497 161.005 72.2704 161.029C72.096 161.093 71.9295 161.156 71.7551 161.212C71.6916 161.236 71.6361 161.251 71.5727 161.267C71.3428 161.339 71.1129 161.395 70.8751 161.45C70.7958 161.466 70.7086 161.49 70.6293 161.506C70.5421 161.522 70.4549 161.538 70.3677 161.553C70.2012 161.585 70.0426 161.609 69.8762 161.625C69.789 161.633 69.7097 161.641 69.6225 161.649C74.3871 161.14 78.1132 157.087 78.1132 152.175V13.2091C78.1132 8.20995 74.2523 4.10097 69.3688 3.71948C74.8073 4.10892 79.12 8.66297 79.12 14.2184L79.0963 14.2105Z" fill="url(#paint1_linear_112_524)"/>
<path d="M79.0962 151.166V152.167C79.0962 157.969 74.3871 162.69 68.5997 162.69H10.8057C5.01834 162.69 0.30127 157.969 0.30127 152.167V151.166C0.30127 151.77 0.356765 152.366 0.451899 152.946C0.467754 153.026 0.48361 153.113 0.499466 153.192C0.578745 153.606 0.681807 154.003 0.808652 154.401C0.832436 154.48 0.856219 154.552 0.887931 154.631C1.08613 155.203 1.33189 155.752 1.62522 156.268C1.66486 156.34 1.7045 156.411 1.74414 156.475C1.85513 156.666 1.97405 156.856 2.10089 157.039C2.14053 157.095 2.18017 157.158 2.21981 157.214C2.44972 157.54 2.70341 157.858 2.97296 158.16C3.02052 158.208 3.06016 158.263 3.10773 158.311C3.14737 158.351 3.17908 158.39 3.21872 158.43C3.27422 158.486 3.32971 158.549 3.39313 158.605C3.44863 158.661 3.51205 158.716 3.56755 158.772C3.61511 158.819 3.67061 158.867 3.71818 158.915C3.87673 159.058 4.04322 159.201 4.2097 159.336C4.2652 159.384 4.32069 159.424 4.37619 159.471C4.6933 159.718 5.02627 159.948 5.36717 160.155C5.43852 160.194 5.50194 160.234 5.57329 160.274C5.72392 160.361 5.88248 160.441 6.03311 160.528C6.09653 160.56 6.15203 160.592 6.21545 160.616C7.09544 161.045 8.03886 161.347 9.02984 161.522C9.1884 161.554 9.35488 161.577 9.52137 161.593C9.68785 161.617 9.85434 161.633 10.0287 161.641C10.116 161.641 10.2032 161.657 10.2904 161.657C10.4489 161.665 10.6154 161.673 10.7819 161.673H68.576C68.7425 161.673 68.901 161.673 69.0675 161.657C69.1547 161.657 69.2419 161.649 69.3291 161.641C69.4639 161.633 69.6066 161.617 69.7414 161.601C69.7731 161.601 69.8048 161.601 69.8365 161.593C70.003 161.569 70.1695 161.546 70.328 161.522C70.4152 161.506 70.5024 161.49 70.5896 161.474C70.6768 161.458 70.7561 161.442 70.8354 161.418C71.0732 161.363 71.3032 161.307 71.5331 161.236C71.5965 161.22 71.6599 161.196 71.7154 161.18C71.8898 161.124 72.0642 161.069 72.2307 160.997C72.31 160.965 72.3813 160.942 72.4606 160.91C72.5399 160.878 72.6112 160.846 72.6826 160.814C72.746 160.791 72.8094 160.759 72.8729 160.735C73.1107 160.632 73.3406 160.512 73.5705 160.393C73.6419 160.353 73.7053 160.322 73.7766 160.274C73.9193 160.194 74.0541 160.115 74.1889 160.02C74.2602 159.98 74.3237 159.932 74.395 159.884C74.5932 159.749 74.7914 159.606 74.9817 159.463C75.0372 159.416 75.1006 159.376 75.1561 159.328C75.2829 159.217 75.4177 159.114 75.5446 159.002C75.6 158.955 75.6555 158.907 75.711 158.851C75.8934 158.684 76.0678 158.51 76.2343 158.327C76.3453 158.208 76.4563 158.088 76.5514 157.969C76.6069 157.905 76.6544 157.842 76.7099 157.778C76.7654 157.715 76.813 157.651 76.8606 157.588C76.9081 157.524 76.9557 157.46 77.0033 157.397C77.0508 157.333 77.0984 157.27 77.146 157.198C77.1856 157.143 77.2253 157.079 77.2649 157.023C77.3917 156.833 77.5107 156.642 77.6217 156.451C77.6613 156.38 77.7009 156.308 77.7406 156.236C77.7802 156.173 77.8119 156.101 77.8516 156.038C77.9071 155.934 77.9546 155.839 78.0022 155.736C78.0418 155.664 78.0735 155.593 78.1052 155.513C78.1845 155.346 78.2559 155.179 78.3193 155.005C78.3431 154.949 78.3669 154.893 78.3827 154.83C78.4144 154.75 78.4382 154.679 78.4699 154.599C78.5016 154.52 78.5254 154.448 78.5492 154.369C78.8743 153.351 79.0566 152.263 79.0566 151.134L79.0962 151.166Z" fill="url(#paint2_linear_112_524)"/>
<path d="M79.0962 13.209V14.2105C79.0962 8.74242 74.9183 4.24401 69.5987 3.73535C69.5115 3.72741 69.4322 3.71946 69.345 3.71151C69.2578 3.71151 69.1706 3.69561 69.0834 3.69561C68.9248 3.68767 68.7583 3.67972 68.5997 3.67972H10.8057C10.6392 3.67972 10.4806 3.67972 10.3221 3.69561C4.7488 3.95789 0.30127 8.57552 0.30127 14.2105V13.209C0.30127 13.1057 0.30127 13.0024 0.30127 12.8991C0.30127 12.8196 0.30127 12.7481 0.309197 12.6686C0.317125 12.5017 0.332981 12.3348 0.348837 12.1679C0.356765 12.0805 0.364692 11.993 0.380548 11.9136C0.380548 11.8659 0.396404 11.8261 0.396404 11.7785C0.396404 11.7228 0.412259 11.6672 0.420187 11.6116C0.436043 11.5241 0.443971 11.4367 0.459827 11.3493C0.48361 11.1983 0.515322 11.0473 0.547033 10.9042C0.562889 10.8327 0.578744 10.7611 0.602528 10.6817C0.658023 10.4591 0.713518 10.2525 0.784869 10.0379C0.808652 9.97432 0.832436 9.90279 0.848292 9.83921C0.880003 9.75973 0.903787 9.67231 0.935498 9.59283C0.959282 9.5213 0.983065 9.45772 1.01478 9.39414C1.03856 9.3385 1.05442 9.28287 1.0782 9.22723C1.10198 9.16365 1.13369 9.09212 1.15748 9.02854C1.18126 8.98085 1.19712 8.93317 1.2209 8.88548C1.25261 8.81395 1.28432 8.74242 1.32396 8.67089C1.37946 8.54373 1.44288 8.42451 1.51423 8.29735C1.54594 8.23377 1.57765 8.17019 1.61729 8.10661C1.65693 8.03508 1.69657 7.96355 1.73621 7.89202C2.02954 7.39926 2.35458 6.92239 2.72719 6.48527C2.78269 6.42169 2.83026 6.3581 2.88575 6.29452C2.94917 6.22299 3.00467 6.15941 3.06809 6.08788C3.17115 5.97661 3.27422 5.86535 3.38521 5.76202C3.50412 5.64281 3.62304 5.53154 3.74196 5.42027C3.86088 5.309 3.98772 5.20568 4.11457 5.10236C4.17799 5.04673 4.24141 4.99904 4.30484 4.95136C4.43168 4.84804 4.56646 4.75266 4.70123 4.65729C4.836 4.56192 4.97078 4.46654 5.10555 4.37912C5.24032 4.29169 5.38302 4.20427 5.52573 4.12479C5.59708 4.08505 5.66843 4.04531 5.73978 4.00558C5.81113 3.96584 5.88248 3.9261 5.95383 3.88636C6.02518 3.84662 6.09653 3.80688 6.17581 3.77509C6.24716 3.73535 6.32644 3.70356 6.39779 3.66382C6.54842 3.59229 6.69905 3.52871 6.84968 3.46513C6.92103 3.43334 6.99238 3.40155 7.07166 3.37771C7.07166 3.37771 7.08751 3.37771 7.09544 3.36976C7.16679 3.33797 7.24607 3.31412 7.31742 3.29028C7.38877 3.26644 7.46805 3.24259 7.5394 3.2108C7.62661 3.18696 7.70589 3.15517 7.79309 3.13133C7.87237 3.10748 7.95165 3.08364 8.03093 3.0598C8.11021 3.03595 8.18949 3.01211 8.27669 2.99621C8.35597 2.97237 8.44318 2.95648 8.52246 2.94058C8.68894 2.90084 8.85543 2.86905 9.02191 2.84521C9.10119 2.82931 9.1884 2.81342 9.2756 2.80547C9.45794 2.78163 9.64028 2.75778 9.82262 2.74189C9.96533 2.72599 10.116 2.71804 10.2587 2.7101C10.3459 2.7101 10.441 2.70215 10.5282 2.70215C10.6154 2.70215 10.7105 2.70215 10.7978 2.70215H68.5918C68.679 2.70215 68.7742 2.70215 68.8614 2.70215C68.9327 2.70215 69.012 2.70215 69.0834 2.7101C69.2498 2.71804 69.4242 2.73394 69.5907 2.74983C69.6779 2.75778 69.7572 2.76573 69.8444 2.78163C69.9316 2.78957 70.0188 2.80547 70.0981 2.81342C70.1774 2.82136 70.2646 2.83726 70.3518 2.85316C70.439 2.86905 70.5183 2.88495 70.5976 2.90084C70.6768 2.91674 70.7641 2.93263 70.8433 2.95648C70.9226 2.97237 70.994 2.98827 71.0653 3.00416C71.0812 3.00416 71.097 3.01211 71.1129 3.02006C71.1842 3.03595 71.2556 3.0598 71.3269 3.07569C71.4221 3.09953 71.5251 3.13133 71.6203 3.16312C71.6837 3.18696 71.755 3.20286 71.8185 3.2267C71.9612 3.27438 72.1118 3.32207 72.2545 3.37771C72.3496 3.4095 72.4527 3.44923 72.5399 3.48897C72.6112 3.52076 72.6747 3.54461 72.746 3.5764C72.8253 3.60819 72.8967 3.63998 72.9759 3.67972C73.0473 3.71151 73.1266 3.75125 73.1979 3.78304C73.7291 4.04532 74.2285 4.34733 74.7042 4.68908C74.7597 4.72882 74.8231 4.76856 74.8786 4.81624C75.0847 4.9752 75.2909 5.13415 75.4811 5.309C75.5683 5.38053 75.6555 5.46001 75.7348 5.53949C76.0757 5.8574 76.3928 6.1912 76.6782 6.54885C76.7337 6.61243 76.7813 6.67601 76.8289 6.73959C76.9319 6.87471 77.035 7.00982 77.1301 7.14493C77.1777 7.21646 77.2253 7.28004 77.2728 7.35157C77.3521 7.47079 77.4314 7.59 77.5107 7.71717C77.5503 7.78075 77.582 7.84433 77.6217 7.90791C77.693 8.02713 77.7564 8.14634 77.8198 8.26556C77.8516 8.32119 77.8833 8.38478 77.915 8.44041C78.018 8.64705 78.1211 8.84574 78.2083 9.06033C78.2321 9.11597 78.2559 9.1716 78.2797 9.22723C78.3669 9.43388 78.4461 9.64847 78.5175 9.86305C78.5492 9.94253 78.573 10.022 78.5968 10.1015C78.7395 10.5625 78.8505 11.0393 78.9297 11.5241C78.9377 11.5718 78.9456 11.6274 78.9535 11.6831C78.9694 11.7705 78.9773 11.85 78.9852 11.9374C78.9932 12.0248 79.009 12.1123 79.017 12.1917C79.0249 12.2792 79.0328 12.3666 79.0407 12.454C79.0487 12.613 79.0566 12.7719 79.0645 12.9309C79.0645 13.0342 79.0645 13.1375 79.0645 13.2408L79.0962 13.209Z" fill="url(#paint3_linear_112_524)"/>
<path d="M69.0834 3.69558C68.9248 3.68764 68.7583 3.67969 68.5997 3.67969H10.8057C10.6392 3.67969 10.4806 3.67969 10.3221 3.69558C5.31168 3.95786 1.31604 8.12247 1.31604 13.2011V152.167C1.31604 157.166 5.17691 161.275 10.0605 161.657C10.1477 161.657 10.2349 161.673 10.3221 161.673C10.4806 161.681 10.6471 161.689 10.8136 161.689H68.6077C68.7742 161.689 68.9327 161.688 69.0992 161.673C69.1864 161.673 69.2736 161.665 69.3608 161.657C74.2523 161.267 78.1052 157.158 78.1052 152.167V13.209C78.1052 8.12247 74.1096 3.95786 69.0992 3.70353L69.0834 3.69558ZM77.2887 152.167C77.2887 156.681 73.7687 160.504 69.2895 160.862C69.2102 160.862 69.1309 160.878 69.0437 160.878C68.8931 160.886 68.7424 160.894 68.5918 160.894H10.8057C10.6551 160.894 10.5044 160.894 10.3538 160.878C10.2745 160.878 10.1952 160.87 10.116 160.862C5.62879 160.504 2.10883 156.689 2.10883 152.167V13.209C2.10883 8.57549 5.716 4.75263 10.3379 4.50625H10.3617C10.5044 4.4983 10.6551 4.49036 10.8057 4.49036H68.5997C68.7504 4.49036 68.901 4.49036 69.0437 4.4983H69.0596C73.6815 4.74468 77.2966 8.56754 77.2966 13.209V152.175L77.2887 152.167Z" fill="#404040"/>
<path d="M77.2886 13.2646V152.231C77.2886 153.089 77.1618 153.924 76.924 154.718C76.7337 155.346 76.4721 155.95 76.155 156.515C76.0915 156.634 76.0202 156.745 75.9488 156.856C75.8379 157.023 75.7269 157.19 75.6159 157.349C75.2829 157.802 74.9103 158.223 74.498 158.605C75.2591 157.278 75.6952 155.728 75.6952 154.098V152.493C75.6952 152.398 75.6952 152.302 75.6952 152.207V13.2488C75.6952 13.1534 75.6952 13.0501 75.6952 12.9547V11.389C75.6952 9.73586 75.2591 8.18605 74.498 6.85083C76.2263 8.44832 77.2966 10.7373 77.2966 13.2646H77.2886Z" fill="url(#paint4_linear_112_524)"/>
<path d="M69.012 5.30116H68.9724C68.8455 5.30116 68.7187 5.29321 68.5918 5.29321H10.8057C10.6709 5.29321 10.5441 5.29321 10.4172 5.29321H10.3776H10.3617C6.18376 5.53164 2.91748 8.99686 2.91748 13.1933V152.159C2.91748 156.26 6.10448 159.726 10.1873 160.051C10.2507 160.051 10.3142 160.059 10.3776 160.059H10.4014C10.5361 160.059 10.6789 160.067 10.8136 160.067H68.6077C68.7425 160.067 68.8772 160.067 69.012 160.059H69.0358C69.0992 160.059 69.1706 160.059 69.234 160.043C73.3089 159.726 76.4959 156.26 76.4959 152.151V13.2092C76.4959 8.99686 73.2138 5.5237 69.0199 5.30911L69.012 5.30116ZM74.3871 152.167C74.3871 153.487 73.9352 154.711 73.19 155.696C73.1504 155.752 73.1107 155.799 73.0631 155.847C72.9363 155.998 72.8015 156.149 72.6588 156.292C72.532 156.411 72.4051 156.531 72.2704 156.65C72.1039 156.793 71.9215 156.92 71.7313 157.047C71.541 157.166 71.3507 157.278 71.1525 157.381C71.0574 157.429 70.9543 157.476 70.8513 157.524C70.7482 157.572 70.6452 157.611 70.5421 157.643C70.328 157.723 70.114 157.786 69.892 157.834C69.6225 157.898 69.3529 157.937 69.0675 157.961C69.0437 157.961 69.0199 157.961 68.9882 157.961H68.9248H68.901C68.8772 157.961 68.8535 157.961 68.8297 157.961C68.8059 157.961 68.7821 157.961 68.7583 157.961C68.7108 157.961 68.6553 157.961 68.6077 157.961H10.8057C10.7581 157.961 10.7106 157.961 10.6551 157.961C10.6075 157.961 10.552 157.961 10.5044 157.961H10.4569H10.4172C10.3934 157.961 10.3697 157.961 10.338 157.961C7.34915 157.723 5.01043 155.187 5.01043 152.175V13.2092C5.01043 10.1493 7.38086 7.6219 10.4172 7.41526H10.5441C10.6392 7.40731 10.7185 7.40731 10.7978 7.40731H68.5839C68.6632 7.40731 68.7504 7.40731 68.8376 7.40731H68.8614H68.8852C68.901 7.40731 68.9248 7.40731 68.9407 7.40731C68.9962 7.40731 69.0517 7.40731 69.1071 7.4232C69.1309 7.4232 69.1547 7.4232 69.1864 7.4232C69.234 7.4232 69.2895 7.43115 69.3371 7.4391C69.4005 7.4391 69.456 7.455 69.5194 7.46294C69.5194 7.46294 69.5194 7.46294 69.5273 7.46294C69.6145 7.47089 69.7017 7.48679 69.781 7.51063C69.7969 7.51063 69.8127 7.51858 69.8286 7.51858C69.8999 7.53447 69.9713 7.55037 70.0347 7.56626C70.1378 7.59011 70.2408 7.6219 70.336 7.65369C70.4152 7.67753 70.4945 7.70138 70.5738 7.73317C70.661 7.76496 70.7403 7.79675 70.8275 7.83649C70.994 7.90802 71.1525 7.98749 71.319 8.07492C71.4617 8.1544 71.6044 8.23387 71.7392 8.32925C71.7709 8.35309 71.8026 8.36898 71.8343 8.39283C71.8898 8.43257 71.9453 8.47231 72.0008 8.51204C72.0722 8.55973 72.1435 8.61536 72.2149 8.67895C72.3496 8.79021 72.4844 8.90943 72.6113 9.03659C72.6747 9.10018 72.7381 9.16376 72.8015 9.22734C72.865 9.29092 72.9204 9.36245 72.9759 9.42603C73.2059 9.69626 73.412 9.99032 73.5943 10.3003C73.6815 10.4513 73.7608 10.6182 73.8401 10.7771C73.9114 10.944 73.9828 11.103 74.0462 11.2779C74.0779 11.3653 74.1017 11.4448 74.1255 11.5322C74.181 11.7229 74.2285 11.9137 74.2603 12.1124C74.2761 12.1918 74.292 12.2634 74.2999 12.3428C74.3395 12.621 74.3633 12.8992 74.3633 13.1853V152.151L74.3871 152.167Z" fill="black"/>
<path d="M20.4697 10.0778C20.4697 10.0778 20.43 9.99831 20.4142 9.95857C20.4142 9.94268 20.4062 9.92678 20.3983 9.91089C20.4221 9.96652 20.4459 10.0222 20.4697 10.0698V10.0778Z" fill="black"/>
<path d="M58.9991 9.9187C58.9991 9.9187 58.9912 9.94254 58.9832 9.96639C58.9674 10.0061 58.9515 10.0459 58.9277 10.0856C58.9515 10.03 58.9753 9.98228 58.9991 9.92665V9.9187Z" fill="black"/>
<path d="M60.2517 7.39931C59.776 7.42315 59.3876 7.79669 59.34 8.26561C59.34 8.31329 59.34 8.35303 59.34 8.39277C59.34 8.56762 59.3162 8.74247 59.2845 8.90937C59.2766 8.97296 59.2686 9.02859 59.2528 9.08422C59.2369 9.15575 59.2211 9.22728 59.2052 9.29881C59.1894 9.36239 59.1735 9.42598 59.1577 9.48956C59.1577 9.50545 59.1497 9.5134 59.1418 9.53724C59.1418 9.55314 59.1339 9.56904 59.1259 9.58493C59.1259 9.60083 59.1259 9.60877 59.118 9.62467C59.118 9.64851 59.1022 9.66441 59.0942 9.68825C59.0863 9.71209 59.0784 9.73594 59.0705 9.75978C59.0546 9.81541 59.0308 9.87105 59.007 9.92668C58.9832 9.98232 58.9595 10.038 58.9357 10.0856C58.9357 10.0936 58.9357 10.1015 58.9278 10.1095C58.9278 10.1095 58.9278 10.1095 58.9278 10.1174C58.904 10.1651 58.8802 10.2049 58.8643 10.2525C58.8485 10.2923 58.8247 10.332 58.8009 10.3718C58.8009 10.3797 58.793 10.3956 58.7771 10.4115C58.7692 10.4353 58.7533 10.4512 58.7454 10.4671C58.7296 10.491 58.7137 10.5228 58.6978 10.5466C58.6978 10.5466 58.6978 10.5625 58.6899 10.5704C58.6899 10.5784 58.682 10.5863 58.6741 10.6022C58.6661 10.6181 58.6503 10.634 58.6423 10.6499C58.6344 10.6738 58.6186 10.6897 58.6027 10.7056C58.5948 10.7215 58.5789 10.7374 58.571 10.7532C58.571 10.7612 58.5631 10.7691 58.5551 10.7771C58.5393 10.8009 58.5314 10.8168 58.5155 10.8327C58.5076 10.8486 58.4996 10.8566 58.4838 10.8725C58.4759 10.8963 58.46 10.9122 58.4442 10.9281C58.4442 10.9281 58.4441 10.936 58.4362 10.944C58.4283 10.9519 58.4362 10.9519 58.4283 10.9519C58.4124 10.9758 58.3966 10.9917 58.3807 11.0155C58.3807 11.0235 58.3728 11.0314 58.3649 11.0394C58.349 11.0632 58.3332 11.0871 58.3094 11.1029C58.3094 11.1029 58.2618 11.1586 58.238 11.1824C58.2142 11.2142 58.1905 11.2381 58.1667 11.2619C58.1667 11.2619 58.135 11.2937 58.1191 11.3096C58.1033 11.3255 58.0874 11.3493 58.0636 11.3652C58.0478 11.3811 58.0319 11.397 58.016 11.4129C57.9843 11.4447 57.9526 11.4765 57.9209 11.5083C57.8971 11.5321 57.8733 11.556 57.8496 11.5798C57.8337 11.5957 57.8179 11.6037 57.802 11.6195C57.7624 11.6513 57.7227 11.6831 57.691 11.7149C57.6593 11.7467 57.6197 11.7706 57.58 11.8023C57.5562 11.8182 57.5325 11.8341 57.5166 11.85C57.4928 11.8739 57.469 11.8898 57.4373 11.9057C57.4135 11.9216 57.3897 11.9454 57.358 11.9613C57.3501 11.9693 57.3342 11.9772 57.3263 11.9851C57.2788 12.009 57.2391 12.0408 57.1916 12.0646C57.1598 12.0885 57.1202 12.1123 57.0885 12.1282C57.0409 12.152 57.0013 12.1838 56.9537 12.1997C56.9379 12.2077 56.922 12.2236 56.9061 12.2315C56.9061 12.2315 56.9061 12.2315 56.8982 12.2315C56.8665 12.2474 56.8348 12.2633 56.8031 12.2792C56.7793 12.2951 56.7476 12.311 56.7159 12.3269C56.6921 12.3428 56.6604 12.3507 56.6366 12.3666C56.6207 12.3666 56.6128 12.3746 56.589 12.3825C56.5811 12.3825 56.5653 12.3905 56.5494 12.3984C56.478 12.4302 56.4067 12.4541 56.3353 12.4779C56.2719 12.5017 56.2006 12.5256 56.1371 12.5415C56.0658 12.5653 55.9944 12.5892 55.9152 12.6051C55.7645 12.6448 55.6139 12.6766 55.4633 12.7004C55.3999 12.7084 55.3364 12.7163 55.273 12.7243C55.2572 12.7243 55.2492 12.7243 55.2334 12.7243C55.1779 12.7243 55.1224 12.7322 55.0669 12.7322C55.0035 12.7322 54.94 12.7322 54.8766 12.7402C54.8528 12.7402 54.837 12.7402 54.8132 12.7402H24.6001C24.6001 12.7402 24.5605 12.7402 24.5367 12.7402C24.4733 12.7402 24.4099 12.7402 24.3464 12.7322C24.2909 12.7322 24.2354 12.7322 24.18 12.7243C24.1641 12.7243 24.1562 12.7243 24.1403 12.7243C24.0769 12.7243 24.0135 12.7084 23.95 12.7004C23.7994 12.6766 23.6488 12.6448 23.4982 12.6051C23.4268 12.5892 23.3555 12.5653 23.2762 12.5415C23.2128 12.5176 23.1414 12.4938 23.078 12.4779C23.0066 12.4541 22.9353 12.4223 22.8639 12.3984C22.8639 12.3984 22.8401 12.3905 22.8243 12.3825C22.8084 12.3825 22.7926 12.3746 22.7767 12.3666C22.7529 12.3587 22.7212 12.3428 22.6974 12.3269C22.6657 12.311 22.634 12.3031 22.6102 12.2792C22.5785 12.2633 22.5468 12.2474 22.5151 12.2315C22.5151 12.2315 22.5151 12.2315 22.5072 12.2315C22.4913 12.2236 22.4755 12.2156 22.4596 12.1997C22.412 12.1759 22.3724 12.152 22.3248 12.1282C22.2931 12.1123 22.2535 12.0885 22.2218 12.0646C22.1742 12.0408 22.1346 12.009 22.087 11.9851C22.0791 11.9851 22.0632 11.9693 22.0553 11.9613C22.0315 11.9454 21.9998 11.9295 21.976 11.9057C21.9522 11.8898 21.9205 11.8659 21.8967 11.85C21.8729 11.8341 21.8492 11.8182 21.8333 11.8023C21.7937 11.7706 21.762 11.7467 21.7223 11.7149C21.6827 11.6831 21.643 11.6513 21.6113 11.6195C21.5955 11.6037 21.5796 11.5957 21.5638 11.5798C21.54 11.556 21.5162 11.5321 21.4924 11.5083C21.4607 11.4765 21.429 11.4447 21.3973 11.4129C21.3814 11.397 21.3656 11.3811 21.3497 11.3652C21.3339 11.3493 21.3101 11.3255 21.2942 11.3096C21.2784 11.2937 21.2625 11.2778 21.2466 11.2619C21.2466 11.2619 21.2229 11.2381 21.207 11.2142C21.1674 11.1745 21.1357 11.1347 21.1039 11.0871C21.1039 11.0871 21.0643 11.0394 21.0485 11.0235C21.0485 11.0235 21.0326 11.0076 21.0326 10.9996C21.0167 10.9758 21.0009 10.9599 20.985 10.936C20.985 10.936 20.9771 10.936 20.9771 10.9281C20.9771 10.9281 20.9771 10.9201 20.9692 10.9122C20.9533 10.8963 20.9375 10.8725 20.9295 10.8566C20.9216 10.8486 20.9057 10.8327 20.8978 10.8168C20.882 10.8009 20.874 10.7771 20.8582 10.7612C20.8582 10.7612 20.8503 10.7453 20.8423 10.7374C20.8344 10.7215 20.8185 10.7056 20.8106 10.6897C20.7948 10.6738 20.7868 10.6499 20.771 10.634C20.763 10.6181 20.7472 10.6022 20.7393 10.5863C20.7393 10.5784 20.7313 10.5704 20.7234 10.5546C20.7234 10.5546 20.7234 10.5387 20.7155 10.5307C20.6996 10.5069 20.6838 10.483 20.6679 10.4512C20.66 10.4353 20.6441 10.4115 20.6362 10.3956C20.6362 10.3877 20.6203 10.3718 20.6124 10.3559C20.5886 10.3161 20.5728 10.2764 20.549 10.2366C20.5252 10.189 20.5014 10.1492 20.4856 10.1015C20.4856 10.1015 20.4856 10.1015 20.4856 10.0936C20.4856 10.0936 20.4856 10.0777 20.4776 10.0697C20.4539 10.0141 20.4301 9.96642 20.4063 9.91079C20.3825 9.85515 20.3587 9.79952 20.3429 9.74389C20.3349 9.72004 20.327 9.6962 20.3191 9.67236C20.3191 9.64851 20.3032 9.63262 20.2953 9.60877C20.2953 9.60083 20.2874 9.58493 20.2874 9.56904C20.2874 9.55314 20.2794 9.53724 20.2715 9.52135C20.2715 9.50545 20.2636 9.48956 20.2557 9.47366C20.2398 9.41008 20.216 9.3465 20.2081 9.28292C20.1922 9.21139 20.1764 9.14781 20.1605 9.07628C20.1447 9.01269 20.1367 8.95706 20.1288 8.90143C20.0971 8.73452 20.0813 8.55967 20.0733 8.38482C20.0733 8.34509 20.0733 8.30535 20.0733 8.25766C20.0258 7.78874 19.6373 7.4152 19.1616 7.39136H60.2755L60.2517 7.39931Z" fill="black"/>
<path d="M24.3544 12.7642C24.4178 12.7642 24.4812 12.7642 24.5446 12.7721C24.5129 12.7721 24.4733 12.7721 24.4416 12.7721C24.4019 12.7721 24.3702 12.7721 24.3306 12.7721C24.2909 12.7721 24.2513 12.7721 24.2117 12.7642C24.2117 12.7642 24.2037 12.7642 24.1958 12.7642C24.2513 12.7642 24.3068 12.7721 24.3623 12.7721L24.3544 12.7642Z" fill="black"/>
<path d="M55.2095 12.756C55.2095 12.756 55.2016 12.756 55.1937 12.756C55.1541 12.756 55.1144 12.756 55.0748 12.7639C55.0351 12.7639 55.0034 12.7639 54.9638 12.7639C54.9321 12.7639 54.8924 12.7639 54.8607 12.7639C54.9241 12.7639 54.9876 12.7639 55.051 12.756C55.1065 12.756 55.162 12.756 55.2175 12.748L55.2095 12.756Z" fill="black"/>
<path d="M20.3349 9.75181C20.3349 9.72797 20.3191 9.71208 20.3112 9.68823C20.3191 9.71208 20.327 9.73592 20.3349 9.75976V9.75181Z" fill="black"/>
<path d="M20.4697 10.0778C20.4697 10.0778 20.43 9.99831 20.4142 9.95857C20.4142 9.94268 20.4062 9.92678 20.3983 9.91089C20.4221 9.96652 20.4459 10.0222 20.4697 10.0698V10.0778Z" fill="black"/>
<path d="M21.0325 11.0076C21.0325 11.0076 20.9929 10.9599 20.9771 10.936C20.9771 10.936 20.9771 10.944 20.985 10.944C21.0008 10.9678 21.0167 10.9837 21.0325 11.0076Z" fill="black"/>
<path d="M21.215 11.2221C21.215 11.2221 21.1674 11.1744 21.1436 11.1427C21.1278 11.1268 21.1199 11.1109 21.104 11.095C21.1357 11.1347 21.1754 11.1744 21.2071 11.2221H21.215Z" fill="black"/>
<path d="M21.3022 11.3175C21.3022 11.3175 21.2705 11.2857 21.2546 11.2698C21.2546 11.2698 21.2864 11.3016 21.3022 11.3175Z" fill="black"/>
<path d="M21.8412 11.8102C21.8412 11.8102 21.7699 11.7546 21.7303 11.7228C21.7065 11.7069 21.6827 11.691 21.6668 11.6672C21.651 11.6513 21.6351 11.6433 21.6193 11.6274C21.6589 11.6592 21.6985 11.691 21.7303 11.7228C21.762 11.7546 21.8016 11.7784 21.8412 11.8102Z" fill="black"/>
<path d="M21.9047 11.858C21.9047 11.858 21.9522 11.8978 21.9839 11.9137C21.976 11.9137 21.9681 11.9057 21.9602 11.8978C21.9443 11.8819 21.9205 11.8739 21.9047 11.8501V11.858Z" fill="black"/>
<path d="M22.2298 12.0805C22.2298 12.0805 22.1743 12.0487 22.1505 12.0328C22.1346 12.0248 22.1188 12.0089 22.1029 12.001C22.1505 12.0248 22.1901 12.0566 22.2377 12.0805H22.2298Z" fill="black"/>
<path d="M23.0938 12.5018C23.0304 12.478 22.9749 12.4621 22.9194 12.4383C22.9115 12.4383 22.8956 12.4303 22.8877 12.4224C22.959 12.4542 23.0304 12.478 23.1017 12.5018H23.0938Z" fill="black"/>
<path d="M23.2921 12.5732C23.3634 12.5971 23.4348 12.6209 23.514 12.6368C23.4665 12.6289 23.4189 12.613 23.3634 12.5971C23.3396 12.5971 23.3159 12.5812 23.2921 12.5732C23.2604 12.5653 23.2286 12.5494 23.1969 12.5414C23.1652 12.5335 23.1256 12.5176 23.0939 12.5017C23.1573 12.5256 23.2286 12.5494 23.2921 12.5653V12.5732Z" fill="black"/>
<path d="M23.958 12.7243C24.0214 12.7322 24.0848 12.7402 24.1483 12.7481C24.0928 12.7481 24.0293 12.7402 23.9818 12.7243C23.9818 12.7243 23.9659 12.7243 23.958 12.7243C23.9342 12.7243 23.9104 12.7163 23.8787 12.7084C23.8311 12.7084 23.7757 12.6925 23.7281 12.6845C23.6647 12.6686 23.6012 12.6607 23.5378 12.6369C23.5299 12.6369 23.514 12.6369 23.5061 12.6289C23.6567 12.6686 23.8074 12.7004 23.958 12.7243Z" fill="black"/>
<path d="M24.3544 12.7642H24.3306C24.3306 12.7642 24.2989 12.7642 24.283 12.7642C24.2592 12.7642 24.2275 12.7642 24.2037 12.7642C24.2037 12.7642 24.1958 12.7642 24.1879 12.7642C24.2434 12.7642 24.2989 12.7721 24.3544 12.7721V12.7642Z" fill="black"/>
<path d="M55.051 12.7641C55.1065 12.7641 55.162 12.7641 55.2175 12.7561C55.2175 12.7561 55.2096 12.7561 55.2017 12.7561C55.1779 12.7561 55.1462 12.7561 55.1224 12.7561C55.1065 12.7561 55.0907 12.7561 55.0748 12.7561H55.051V12.7641Z" fill="black"/>
<path d="M55.4395 12.7243C55.5902 12.7004 55.7408 12.6686 55.8914 12.6289C55.8835 12.6289 55.8676 12.6289 55.8597 12.6369C55.7963 12.6527 55.7329 12.6686 55.6694 12.6845C55.6219 12.6925 55.5664 12.7084 55.5188 12.7084C55.495 12.7084 55.4712 12.7163 55.4395 12.7243C55.4395 12.7243 55.4237 12.7243 55.4158 12.7243C55.3603 12.7322 55.3048 12.7402 55.2493 12.7481C55.3127 12.7481 55.3761 12.7322 55.4395 12.7243Z" fill="black"/>
<path d="M56.3115 12.5017C56.3115 12.5017 56.2481 12.5256 56.2085 12.5414C56.1768 12.5494 56.145 12.5653 56.1133 12.5732C56.0896 12.5732 56.0658 12.5891 56.042 12.5971C55.9944 12.613 55.9469 12.6209 55.8914 12.6368C55.9627 12.6209 56.0341 12.5971 56.1133 12.5732C56.1768 12.5494 56.2481 12.5256 56.3115 12.5097V12.5017Z" fill="black"/>
<path d="M56.3115 12.5018C56.3829 12.478 56.4542 12.4462 56.5256 12.4224C56.5177 12.4224 56.5018 12.4303 56.4939 12.4383C56.4304 12.4621 56.3749 12.4859 56.3195 12.5018H56.3115Z" fill="black"/>
<path d="M57.1677 12.0805C57.2153 12.0566 57.2549 12.0248 57.3025 12.001C57.2866 12.0089 57.2708 12.0248 57.2549 12.0328C57.2311 12.0487 57.2074 12.0646 57.1757 12.0805H57.1677Z" fill="black"/>
<path d="M57.4929 11.8579C57.4929 11.8579 57.4532 11.8897 57.4374 11.9056C57.4374 11.9056 57.4215 11.9135 57.4136 11.9215C57.4374 11.9056 57.4691 11.8818 57.4929 11.8659V11.8579Z" fill="black"/>
<path d="M57.7862 11.6274C57.7862 11.6274 57.7545 11.6513 57.7386 11.6672C57.7148 11.691 57.6911 11.7069 57.6752 11.7228C57.6435 11.7546 57.6038 11.7864 57.5642 11.8102C57.6038 11.7784 57.6356 11.7546 57.6752 11.7228C57.7148 11.691 57.7545 11.6592 57.7862 11.6274Z" fill="black"/>
<path d="M58.1508 11.2698C58.1508 11.2698 58.1191 11.3016 58.1033 11.3175C58.1191 11.3016 58.135 11.2857 58.1508 11.2698Z" fill="black"/>
<path d="M58.2935 11.103C58.2935 11.103 58.2697 11.1348 58.2539 11.1507C58.246 11.1587 58.238 11.1746 58.2222 11.1825C58.246 11.1587 58.2697 11.1269 58.2935 11.103Z" fill="black"/>
<path d="M58.4204 10.936C58.4204 10.936 58.3807 10.9837 58.3649 11.0076C58.3807 10.9837 58.3966 10.9678 58.4124 10.944C58.4124 10.944 58.4204 10.944 58.4204 10.936Z" fill="black"/>
<path d="M58.9991 9.9187C58.9991 9.9187 58.9912 9.94254 58.9832 9.96639C58.9674 10.0061 58.9515 10.0459 58.9277 10.0856C58.9515 10.03 58.9753 9.98228 58.9991 9.92665V9.9187Z" fill="black"/>
<path d="M59.0942 9.68031C59.0942 9.68031 59.0784 9.72005 59.0704 9.74389C59.0784 9.72005 59.0863 9.69621 59.0942 9.67236V9.68031Z" fill="black"/>
<path d="M75.6872 152.501V154.107C75.6872 155.736 75.2512 157.286 74.4901 158.613C73.1027 159.9 71.2952 160.751 69.2894 160.91C69.2102 160.91 69.1309 160.926 69.0437 160.926C68.893 160.934 68.7424 160.942 68.5918 160.942H10.8056C10.655 160.942 10.5044 160.942 10.3537 160.926C10.2745 160.926 10.1952 160.918 10.1159 160.91C10.0049 160.902 9.89393 160.886 9.78294 160.878C7.91197 160.655 6.23126 159.837 4.91524 158.621C4.14624 157.286 3.71021 155.736 3.71021 154.099V152.223C3.71021 154.361 4.6774 156.316 6.20748 157.627C7.30945 158.573 8.70475 159.193 10.2428 159.312C10.2903 159.312 10.3458 159.32 10.3934 159.32H10.4172H10.441C10.5599 159.32 10.6867 159.328 10.8136 159.328H68.6076C68.7266 159.328 68.8534 159.328 68.9723 159.32H69.0199C69.0754 159.32 69.1309 159.312 69.1864 159.304C72.746 159.026 75.5524 156.062 75.6951 152.501H75.6872Z" fill="url(#paint5_linear_112_524)"/>
<path d="M77.2886 13.2648V13.2489C77.2886 8.60746 73.6815 4.7846 69.0595 4.54617H69.0437C68.901 4.53822 68.7503 4.53027 68.5997 4.53027H10.8056C10.655 4.53027 10.5044 4.53027 10.3617 4.53822H10.3379C10.1476 4.54617 9.96529 4.56206 9.78295 4.58591C7.91198 4.80844 6.22334 5.61911 4.91525 6.82717C4.15417 8.16239 3.71814 9.71219 3.71814 11.3653V13.241C3.71814 11.0792 4.67741 9.13996 6.20749 7.82858C7.34117 6.85896 8.78404 6.23904 10.3855 6.14366H10.4727C10.5916 6.13572 10.7026 6.12777 10.8056 6.12777H68.5997C68.6948 6.12777 68.79 6.12777 68.901 6.12777H68.9723C72.6429 6.32646 75.5287 9.29096 75.6793 12.939V11.3733C75.6793 9.72014 75.2433 8.17033 74.4822 6.83512C76.2105 8.43261 77.2807 10.7216 77.2807 13.2489L77.2886 13.2648Z" fill="url(#paint6_linear_112_524)"/>
<path d="M4.91523 158.565C3.18695 156.96 2.10876 154.671 2.10876 152.167V13.2092C2.10876 10.6819 3.18695 8.3929 4.9073 6.79541C4.14622 8.13063 3.71019 9.68044 3.71019 11.3336V154.051C3.71019 155.688 4.14622 157.238 4.91523 158.573V158.565Z" fill="url(#paint7_linear_112_524)"/>
<path d="M77.2886 13.2646V152.231C77.2886 153.089 77.1618 153.924 76.924 154.718C76.7337 155.346 76.4721 155.95 76.155 156.515C76.0915 156.634 76.0202 156.745 75.9488 156.856C75.8458 157.023 75.7348 157.19 75.6159 157.349C75.2829 157.81 74.9024 158.239 74.4901 158.621C74.4901 158.621 74.4901 158.613 74.498 158.605C75.2591 157.278 75.6951 155.728 75.6951 154.098V11.389C75.6951 9.73586 75.2591 8.18605 74.498 6.85083C76.2263 8.44832 77.2966 10.7373 77.2966 13.2646H77.2886Z" fill="url(#paint8_linear_112_524)"/>
<path d="M43.8014 8.0271H35.1045C34.96 8.0271 34.8429 8.14452 34.8429 8.28937V8.73445C34.8429 8.8793 34.96 8.99672 35.1045 8.99672H43.8014C43.9459 8.99672 44.063 8.8793 44.063 8.73445V8.28937C44.063 8.14452 43.9459 8.0271 43.8014 8.0271Z" fill="url(#paint9_linear_112_524)"/>
<path d="M74.387 13.2091V152.175C74.387 153.494 73.9352 154.718 73.1899 155.704C73.1503 155.76 73.1107 155.807 73.0631 155.855C72.9363 156.006 72.8015 156.157 72.6588 156.3C72.5319 156.419 72.4051 156.538 72.2703 156.658C72.1038 156.801 71.9215 156.928 71.7312 157.055C71.5489 157.174 71.3507 157.286 71.1525 157.389C71.0574 157.437 70.9543 157.484 70.8512 157.532C70.7482 157.58 70.6451 157.611 70.542 157.651C70.328 157.731 70.1139 157.786 69.892 157.842C69.6224 157.905 69.3529 157.945 69.0675 157.969C69.0357 157.969 69.0199 157.969 68.9882 157.969H68.9485H68.9089C68.9089 157.969 68.8534 157.969 68.8296 157.969C68.8058 157.969 68.7821 157.969 68.7583 157.969C68.7107 157.969 68.6552 157.969 68.6076 157.969H10.8056C10.7581 157.969 10.7105 157.969 10.655 157.969C10.6074 157.969 10.552 157.969 10.5044 157.969H10.4965H10.4568H10.441H10.4251C10.4013 157.969 10.3775 157.969 10.3458 157.969C7.35703 157.731 5.01831 155.195 5.01831 152.183V13.2091C5.01831 10.1492 7.38874 7.62182 10.4251 7.41517H10.552C10.6471 7.40723 10.7264 7.40723 10.8056 7.40723H19.1457C19.6214 7.43107 20.0099 7.80461 20.0575 8.27353C20.0575 8.30532 20.0575 8.33711 20.0575 8.3689V8.3848C20.0575 8.3848 20.0575 8.39275 20.0575 8.40069C20.0575 8.57554 20.0812 8.75039 20.1129 8.9173C20.1209 8.98088 20.1288 9.03651 20.1447 9.09215C20.1605 9.16367 20.1764 9.2352 20.1922 9.30673C20.2081 9.37032 20.2239 9.4339 20.2398 9.49748C20.2398 9.51338 20.2477 9.52927 20.2556 9.54517C20.2556 9.56106 20.2636 9.57696 20.2715 9.59285C20.2715 9.60875 20.2715 9.6167 20.2794 9.63259C20.2794 9.65643 20.2953 9.67233 20.3032 9.69617C20.3111 9.72002 20.3191 9.73591 20.327 9.75975C20.3429 9.81539 20.3666 9.87102 20.3904 9.92666C20.4142 9.98229 20.438 10.0379 20.4618 10.0856C20.4618 10.0936 20.4618 10.1015 20.4697 10.1095C20.4697 10.1095 20.4697 10.1095 20.4697 10.1174C20.4935 10.1651 20.5173 10.2048 20.5331 10.2525C20.549 10.2923 20.5728 10.332 20.5965 10.3717C20.5965 10.3797 20.6124 10.3956 20.6203 10.4115C20.6283 10.4353 20.6441 10.4512 20.652 10.4671C20.6679 10.4909 20.6838 10.5227 20.6996 10.5466C20.6996 10.5466 20.6996 10.5625 20.7075 10.5704C20.7075 10.5784 20.7234 10.5943 20.7234 10.6022C20.7313 10.6181 20.7472 10.634 20.7551 10.6499C20.763 10.6737 20.7789 10.6896 20.7947 10.7055C20.8027 10.7214 20.8185 10.7373 20.8265 10.7532C20.8265 10.7612 20.8344 10.7691 20.8423 10.7771C20.8582 10.8009 20.8661 10.8168 20.882 10.8327C20.8899 10.8486 20.8978 10.8565 20.9137 10.8724C20.9216 10.8963 20.9374 10.9122 20.9533 10.9281C20.9533 10.9281 20.9533 10.936 20.9612 10.944C20.9612 10.944 20.9612 10.9519 20.9692 10.9519C20.985 10.9758 21.0009 10.9917 21.0167 11.0155C21.0167 11.0234 21.0247 11.0314 21.0326 11.0393C21.0484 11.0632 21.0643 11.087 21.0881 11.1029C21.0881 11.1029 21.1119 11.1347 21.1277 11.1506C21.1515 11.1745 21.1753 11.2062 21.1991 11.2301C21.207 11.246 21.2228 11.2619 21.2387 11.2778C21.2387 11.2778 21.2704 11.3096 21.2863 11.3255C21.3021 11.3414 21.318 11.3652 21.3418 11.3811C21.3576 11.397 21.3735 11.4129 21.3893 11.4288C21.421 11.4606 21.4528 11.4924 21.4845 11.5242C21.5083 11.548 21.532 11.5718 21.5558 11.5957C21.5717 11.6116 21.5875 11.6195 21.6034 11.6354C21.6192 11.6513 21.6351 11.6593 21.651 11.6752C21.6747 11.6911 21.6906 11.7149 21.7144 11.7308C21.7144 11.7308 21.7857 11.7944 21.8254 11.8182C21.8491 11.8341 21.8729 11.85 21.8888 11.8659C21.9046 11.8818 21.9284 11.8977 21.9443 11.9136C21.9443 11.9136 21.9601 11.9215 21.9681 11.9295C21.9918 11.9454 22.0156 11.9692 22.0473 11.9851C22.0553 11.9931 22.0711 12.001 22.0791 12.009C22.0949 12.0169 22.1108 12.0328 22.1266 12.0408C22.1504 12.0566 22.1742 12.0725 22.2059 12.0884C22.2376 12.1123 22.2773 12.1361 22.309 12.152C22.3565 12.1759 22.3962 12.2077 22.4437 12.2236C22.4596 12.2315 22.4755 12.2474 22.4913 12.2553C22.4913 12.2553 22.4913 12.2553 22.4992 12.2553C22.5309 12.2712 22.5627 12.2871 22.5944 12.303C22.6182 12.3189 22.6499 12.3348 22.6816 12.3507C22.7054 12.3666 22.7371 12.3746 22.7609 12.3905C22.7767 12.3905 22.7846 12.4063 22.8084 12.4063C22.8163 12.4063 22.8322 12.4143 22.8481 12.4222C22.856 12.4222 22.8718 12.4302 22.8877 12.4381C22.9511 12.462 23.0066 12.4858 23.0621 12.5017C23.0938 12.5176 23.1255 12.5256 23.1652 12.5415C23.1969 12.5494 23.2286 12.5653 23.2603 12.5733C23.2603 12.5733 23.3079 12.5891 23.3317 12.5971C23.3792 12.613 23.4268 12.6209 23.4823 12.6368C23.4902 12.6368 23.5061 12.6368 23.514 12.6448C23.5774 12.6607 23.6408 12.6766 23.7043 12.6925C23.7518 12.7004 23.8073 12.7163 23.8549 12.7163C23.8787 12.7163 23.9025 12.7243 23.9342 12.7243C23.9342 12.7243 23.95 12.7243 23.958 12.7243C24.0135 12.7322 24.0689 12.7402 24.1244 12.7481C24.1403 12.7481 24.1482 12.7481 24.1641 12.7481C24.1641 12.7481 24.172 12.7481 24.1799 12.7481C24.2037 12.7481 24.2354 12.7481 24.2592 12.7481C24.2751 12.7481 24.2909 12.7481 24.3068 12.7481C24.3464 12.7481 24.3781 12.7481 24.4178 12.7481C24.4733 12.7481 24.5288 12.7481 24.5843 12.7481C24.6001 12.7481 24.6239 12.7481 24.6477 12.7481H54.726C54.726 12.7481 54.7656 12.7481 54.7894 12.7481C54.8449 12.7481 54.9004 12.7481 54.9559 12.7481C54.9955 12.7481 55.0272 12.7481 55.0669 12.7481C55.0827 12.7481 55.0986 12.7481 55.1144 12.7481C55.1382 12.7481 55.1699 12.7481 55.1937 12.7481C55.1937 12.7481 55.2016 12.7481 55.2096 12.7481C55.2254 12.7481 55.2333 12.7481 55.2492 12.7481C55.3047 12.7481 55.3681 12.7402 55.4157 12.7243C55.4157 12.7243 55.4315 12.7243 55.4395 12.7243C55.4395 12.7243 55.487 12.7163 55.5187 12.7084C55.5663 12.7084 55.6218 12.6925 55.6694 12.6845C55.7328 12.6686 55.7962 12.6607 55.8596 12.6368C55.8676 12.6368 55.8834 12.6368 55.8914 12.6289C55.9389 12.6209 55.9865 12.605 56.042 12.5891C56.0658 12.5891 56.0896 12.5733 56.1133 12.5653C56.1133 12.5653 56.1768 12.5415 56.2085 12.5335C56.2402 12.5256 56.2798 12.5097 56.3115 12.4938C56.375 12.4699 56.4305 12.454 56.486 12.4302C56.4939 12.4302 56.5097 12.4222 56.5256 12.4143C56.5414 12.4143 56.5494 12.4063 56.5652 12.3984C56.5811 12.3984 56.5969 12.3905 56.6128 12.3825C56.6366 12.3746 56.6683 12.3587 56.6921 12.3428C56.7238 12.3269 56.7555 12.3189 56.7793 12.2951C56.811 12.2792 56.8427 12.2633 56.8744 12.2474C56.8744 12.2474 56.8744 12.2474 56.8823 12.2474C56.8982 12.2394 56.9141 12.2315 56.9299 12.2156C56.9775 12.1918 57.0171 12.1679 57.0647 12.1441C57.0964 12.1282 57.136 12.1043 57.1677 12.0805C57.1915 12.0646 57.2232 12.0487 57.247 12.0328C57.2629 12.0249 57.2787 12.009 57.2946 12.001C57.3025 12.001 57.3184 11.9851 57.3263 11.9772C57.3501 11.9613 57.3818 11.9454 57.4056 11.9215C57.4135 11.9215 57.4214 11.9136 57.4294 11.9056C57.4452 11.8897 57.469 11.8818 57.4849 11.858C57.5086 11.8421 57.5324 11.8262 57.5483 11.8103C57.5879 11.7864 57.6196 11.7546 57.6593 11.7228C57.6593 11.7228 57.7068 11.6831 57.7227 11.6672C57.7385 11.6513 57.7544 11.6434 57.7703 11.6275C57.7861 11.6116 57.802 11.6036 57.8178 11.5877C57.8416 11.5639 57.8654 11.54 57.8892 11.5162C57.9209 11.4844 57.9526 11.4526 57.9843 11.4208C58.0002 11.4049 58.016 11.389 58.0319 11.3731C58.0477 11.3572 58.0715 11.3334 58.0874 11.3175C58.1032 11.3016 58.1191 11.2857 58.1349 11.2698C58.1587 11.246 58.1825 11.2142 58.2063 11.1903C58.2221 11.1824 58.2301 11.1665 58.238 11.1586C58.2539 11.1427 58.2618 11.1268 58.2776 11.1109C58.2776 11.1109 58.3173 11.0632 58.3331 11.0473C58.3331 11.0473 58.349 11.0314 58.349 11.0234C58.3648 10.9996 58.3807 10.9837 58.3966 10.9599C58.3966 10.9599 58.4045 10.9599 58.4045 10.9519C58.4045 10.944 58.4045 10.944 58.4124 10.936C58.4283 10.9201 58.4441 10.8963 58.4521 10.8804C58.46 10.8724 58.4758 10.8565 58.4838 10.8406C58.4996 10.8248 58.5076 10.8009 58.5234 10.785C58.5234 10.7771 58.5393 10.7691 58.5393 10.7612C58.5472 10.7453 58.563 10.7294 58.571 10.7135C58.5868 10.6976 58.5948 10.6737 58.6106 10.6578C58.6185 10.642 58.6344 10.6261 58.6423 10.6102C58.6423 10.6022 58.6582 10.5863 58.6582 10.5784C58.6582 10.5784 58.6582 10.5625 58.6661 10.5545C58.682 10.5307 58.6978 10.5068 58.7137 10.4751C58.7216 10.4592 58.7375 10.4353 58.7454 10.4194C58.7533 10.4035 58.7612 10.3956 58.7692 10.3797C58.793 10.3399 58.8088 10.3002 58.8326 10.2605C58.8564 10.2128 58.8802 10.173 58.896 10.1254C58.896 10.1254 58.896 10.1253 58.896 10.1174C58.896 10.1174 58.896 10.1015 58.9039 10.0936C58.9277 10.0379 58.9515 9.99024 58.9753 9.9346C58.9991 9.87897 59.0229 9.82334 59.0387 9.7677C59.0387 9.74386 59.0546 9.72796 59.0625 9.70412C59.0625 9.68028 59.0784 9.66438 59.0863 9.64054C59.0863 9.63259 59.0942 9.6167 59.0942 9.6008C59.0942 9.5849 59.1021 9.56901 59.1101 9.55311C59.1101 9.53722 59.118 9.52132 59.1259 9.50543C59.1418 9.44185 59.1656 9.37826 59.1735 9.31468C59.1893 9.24315 59.2052 9.17957 59.2211 9.10804C59.2369 9.04446 59.2448 8.98882 59.2528 8.93319C59.2845 8.76629 59.3003 8.59144 59.3083 8.41659C59.3083 8.41659 59.3083 8.40864 59.3083 8.40069V8.3848C59.3083 8.3848 59.3083 8.32122 59.3083 8.28943C59.3558 7.82051 59.7443 7.44697 60.22 7.42312H68.5601C68.6394 7.42312 68.7266 7.42312 68.8138 7.42312H68.8376H68.8851H68.9327C68.9802 7.42312 69.0357 7.42312 69.0833 7.43902C69.1071 7.43902 69.1309 7.43902 69.1626 7.43902C69.2102 7.43902 69.2657 7.44697 69.3132 7.45491C69.3766 7.45491 69.4321 7.47081 69.4956 7.47876C69.4956 7.47876 69.4956 7.47876 69.5035 7.47876C69.5907 7.49465 69.6779 7.51055 69.7572 7.52644C69.773 7.52644 69.7889 7.53439 69.8047 7.53439C69.8761 7.55029 69.9474 7.56618 70.0109 7.58208C70.1139 7.60592 70.217 7.63771 70.3121 7.6695C70.3914 7.69334 70.4707 7.72514 70.55 7.74898C70.6372 7.78077 70.7164 7.81256 70.8037 7.8523C70.9701 7.92383 71.1287 8.00331 71.2952 8.09073C71.4379 8.17021 71.5806 8.24969 71.7154 8.34506C71.7471 8.3689 71.7788 8.3848 71.8105 8.40864C71.866 8.44838 71.9215 8.48812 71.977 8.52786C72.0483 8.58349 72.1197 8.63912 72.191 8.69476C72.3258 8.80603 72.4606 8.92524 72.5874 9.05241C72.6508 9.11599 72.7143 9.17957 72.7777 9.24315C72.8411 9.30673 72.8966 9.37826 72.9521 9.44185C73.182 9.71207 73.3881 10.0061 73.5705 10.3161C73.6577 10.4671 73.737 10.634 73.8162 10.793C73.8876 10.9599 73.9589 11.1188 74.0224 11.2937C74.0541 11.3811 74.0779 11.4606 74.1016 11.548C74.1571 11.7387 74.2047 11.9295 74.2364 12.1282C74.2523 12.2077 74.2602 12.2792 74.2761 12.3587C74.3157 12.6368 74.3395 12.915 74.3395 13.2011L74.387 13.2091Z" fill="url(#paint10_linear_112_524)"/>
<path d="M4.02734 149.608C4.02734 149.608 4.02734 149.592 4.01941 149.576C4.02734 149.584 4.02734 149.592 4.03526 149.608H4.02734ZM5.55741 152.175C5.55741 152.175 5.56534 152.183 5.57327 152.183C5.58912 152.215 5.61291 152.231 5.62876 152.263C5.59705 152.231 5.5812 152.207 5.54949 152.175H5.55741ZM9.26765 154.917C9.26765 154.917 9.339 154.933 9.37071 154.949C9.37864 154.957 9.38657 154.957 9.40242 154.965C9.36278 154.949 9.31522 154.925 9.26765 154.917ZM71.8026 155.561C71.8026 155.561 71.8105 155.561 71.8105 155.553C71.8422 155.553 71.8819 155.553 71.9056 155.545C71.866 155.553 71.8343 155.553 71.8026 155.561ZM76.9715 0.0476864C76.9715 0.0476864 76.9557 0.0158955 76.9319 0C76.9715 0.0397387 77.0033 0.0715296 77.035 0.0953728C77.0191 0.0794773 76.9953 0.0556341 76.9636 0.0476864H76.9715ZM77.0984 153.097C77.0984 153.097 77.146 153.041 77.1777 153.01C77.1935 152.994 77.2252 152.962 77.249 152.954C77.2014 153.002 77.1539 153.057 77.1063 153.097H77.0984Z" fill="url(#paint11_linear_112_524)"/>
<path opacity="0.2" d="M79.889 39.5559C79.8414 39.5162 79.7701 39.4765 79.6987 39.4765C79.5323 39.4765 79.3975 39.6116 79.3975 39.7785V13.2092C79.3975 7.22458 74.5615 2.37646 68.5918 2.37646H64.5486L0 67.0948V152.167C0 158.152 4.83599 163 10.8057 163H68.5918C74.5615 163 79.3975 158.152 79.3975 152.167V57.6211C79.3975 57.788 79.5323 57.9232 79.6987 57.9232C79.778 57.9232 79.8414 57.8914 79.889 57.8437C79.9604 57.788 79.9921 57.7086 79.9921 57.6211V39.7785C79.9921 39.6911 79.9524 39.6116 79.889 39.5559Z" fill="url(#paint12_linear_112_524)"/>
</g>
<defs>
<linearGradient id="paint0_linear_112_524" x1="0.301263" y1="82.6645" x2="1.46666" y2="82.6645" gradientUnits="userSpaceOnUse">
<stop stop-color="#666666"/>
<stop offset="0.06" stop-color="#727272"/>
<stop offset="0.33" stop-color="#A8A8A8"/>
<stop offset="0.57" stop-color="#CFCFCF"/>
<stop offset="0.76" stop-color="#E8E8E8"/>
<stop offset="0.87" stop-color="#F1F1F1"/>
<stop offset="0.95" stop-color="#F7F7F7"/>
<stop offset="1" stop-color="white"/>
</linearGradient>
<linearGradient id="paint1_linear_112_524" x1="78.1211" y1="82.6722" x2="79.2707" y2="82.6722" gradientUnits="userSpaceOnUse">
<stop stop-color="white"/>
<stop offset="0.05" stop-color="#F7F7F7"/>
<stop offset="0.13" stop-color="#F1F1F1"/>
<stop offset="0.24" stop-color="#E8E8E8"/>
<stop offset="0.43" stop-color="#CFCFCF"/>
<stop offset="0.67" stop-color="#A8A8A8"/>
<stop offset="0.94" stop-color="#727272"/>
<stop offset="1" stop-color="#666666"/>
</linearGradient>
<linearGradient id="paint2_linear_112_524" x1="39.7027" y1="162.698" x2="39.7027" y2="153.463" gradientUnits="userSpaceOnUse">
<stop stop-color="#F1F1F1"/>
<stop offset="0.12" stop-color="#E3E3E3"/>
<stop offset="0.34" stop-color="#BEBEBE"/>
<stop offset="0.63" stop-color="#838383"/>
<stop offset="1" stop-color="#333333"/>
</linearGradient>
<linearGradient id="paint3_linear_112_524" x1="39.7027" y1="11.5003" x2="39.7027" y2="-0.031871" gradientUnits="userSpaceOnUse">
<stop stop-color="#333333"/>
<stop offset="0.07" stop-color="#4B4B4B"/>
<stop offset="0.25" stop-color="#818181"/>
<stop offset="0.42" stop-color="#AEAEAE"/>
<stop offset="0.59" stop-color="#D1D1D1"/>
<stop offset="0.74" stop-color="#EAEAEA"/>
<stop offset="0.89" stop-color="#F9F9F9"/>
<stop offset="1" stop-color="white"/>
</linearGradient>
<linearGradient id="paint4_linear_112_524" x1="74.4901" y1="82.7278" x2="77.2887" y2="82.7278" gradientUnits="userSpaceOnUse">
<stop stop-color="#F0F0F0"/>
<stop offset="0.14" stop-color="#B7B7B7"/>
<stop offset="0.27" stop-color="#888888"/>
<stop offset="0.4" stop-color="#636363"/>
<stop offset="0.51" stop-color="#484848"/>
<stop offset="0.62" stop-color="#383838"/>
<stop offset="0.7" stop-color="#333333"/>
</linearGradient>
<linearGradient id="paint5_linear_112_524" x1="3.71813" y1="156.57" x2="75.6872" y2="156.57" gradientUnits="userSpaceOnUse">
<stop/>
<stop offset="0.1" stop-color="#141414"/>
<stop offset="0.26" stop-color="#2C2C2C"/>
<stop offset="0.4" stop-color="#3A3A3A"/>
<stop offset="0.52" stop-color="#404040"/>
<stop offset="0.63" stop-color="#383838"/>
<stop offset="0.79" stop-color="#232323"/>
<stop offset="0.99" stop-color="#020202"/>
<stop offset="1"/>
</linearGradient>
<linearGradient id="paint6_linear_112_524" x1="-2.49063e-05" y1="8.89358" x2="77.2966" y2="8.89358" gradientUnits="userSpaceOnUse">
<stop/>
<stop offset="0.1" stop-color="#141414"/>
<stop offset="0.26" stop-color="#2C2C2C"/>
<stop offset="0.4" stop-color="#3A3A3A"/>
<stop offset="0.52" stop-color="#404040"/>
<stop offset="0.63" stop-color="#383838"/>
<stop offset="0.79" stop-color="#232323"/>
<stop offset="0.99" stop-color="#020202"/>
<stop offset="1"/>
</linearGradient>
<linearGradient id="paint7_linear_112_524" x1="2.10876" y1="82.6803" x2="3.77361" y2="82.6803" gradientUnits="userSpaceOnUse">
<stop stop-color="#404040"/>
<stop offset="0.64" stop-color="#191919"/>
<stop offset="1" stop-color="#0A0A0A"/>
</linearGradient>
<linearGradient id="paint8_linear_112_524" x1="74.4822" y1="82.7358" x2="77.2886" y2="82.7358" gradientUnits="userSpaceOnUse">
<stop stop-color="#0A0A0A"/>
<stop offset="0.36" stop-color="#191919"/>
<stop offset="1" stop-color="#404040"/>
</linearGradient>
<linearGradient id="paint9_linear_112_524" x1="34.8429" y1="8.51191" x2="44.0709" y2="8.51191" gradientUnits="userSpaceOnUse">
<stop stop-color="#333333"/>
<stop offset="0.09" stop-color="#2A2A2A"/>
<stop offset="0.29" stop-color="#1E1E1E"/>
<stop offset="0.48" stop-color="#1A1A1A"/>
<stop offset="0.79" stop-color="#1B1B1B"/>
<stop offset="0.9" stop-color="#222222"/>
<stop offset="0.98" stop-color="#2E2E2E"/>
<stop offset="1" stop-color="#333333"/>
</linearGradient>
<linearGradient id="paint10_linear_112_524" x1="-13.4932" y1="29.3589" x2="93.157" y2="135.742" gradientUnits="userSpaceOnUse">
<stop stop-color="#F2F3F4"/>
<stop offset="0.36" stop-color="#EDEEEE"/>
<stop offset="0.78" stop-color="#DEDFE0"/>
<stop offset="1" stop-color="#D5D6D6"/>
</linearGradient>
<linearGradient id="paint11_linear_112_524" x1="40.6302" y1="155.561" x2="40.6302" y2="0" gradientUnits="userSpaceOnUse">
<stop stop-color="white"/>
<stop offset="0.85" stop-color="white"/>
<stop offset="1" stop-color="white"/>
</linearGradient>
<linearGradient id="paint12_linear_112_524" x1="39.996" y1="163" x2="39.996" y2="2.37646" gradientUnits="userSpaceOnUse">
<stop offset="0.2" stop-color="white"/>
<stop offset="0.89" stop-color="white"/>
<stop offset="1" stop-color="white"/>
</linearGradient>
<clipPath id="clip0_112_524">
<rect width="80" height="163" fill="white"/>
</clipPath>
</defs>
</svg>
